<?xml version="1.0" standalone="no"?>
<!DOCTYPE svg PUBLIC "-//W3C//DTD SVG 20010904//EN"
 "http://www.w3.org/TR/2001/REC-SVG-20010904/DTD/svg10.dtd">
<svg version="1.0" xmlns="http://www.w3.org/2000/svg"
 width="862.000000pt" height="1073.000000pt" viewBox="0 0 862.000000 1073.000000"
 preserveAspectRatio="xMidYMid meet">
<metadata>
Created by potrace 1.16, written by Peter Selinger 2001-2019
</metadata>
<g transform="translate(0.000000,1073.000000) scale(0.100000,-0.100000)"
fill="#000000" stroke="none">
<path d="M0 5365 l0 -5365 4310 0 4310 0 0 5365 0 5365 -4310 0 -4310 0 0
-5365z m4204 4221 c-53 -23 -74 -28 -74 -17 0 6 11 11 25 11 14 0 25 5 25 10
0 6 12 10 28 10 l27 -1 -31 -13z m93 8 c-3 -3 -12 -4 -19 -1 -8 3 -5 6 6 6 11
1 17 -2 13 -5z m46 -1 c-7 -2 -19 -2 -25 0 -7 3 -2 5 12 5 14 0 19 -2 13 -5z
m107 -2 c0 -6 -17 -7 -37 -4 -52 8 -54 13 -5 13 23 0 42 -4 42 -9z m50 -21 c0
-5 -4 -10 -9 -10 -6 0 -13 5 -16 10 -3 6 1 10 9 10 9 0 16 -4 16 -10z m-380
-8 c0 -4 -20 -18 -45 -32 -25 -14 -45 -29 -45 -34 0 -5 -3 -6 -7 -3 -8 9 37
58 47 52 4 -3 13 2 20 10 13 16 30 20 30 7z m474 -47 c26 -25 50 -45 54 -45 4
0 20 -11 36 -25 16 -14 32 -25 35 -25 9 -1 111 -96 111 -104 0 -9 43 -70 53
-74 4 -2 7 -10 7 -18 0 -8 4 -14 9 -14 5 0 12 -11 15 -25 4 -14 13 -25 21 -25
27 0 106 -42 121 -65 36 -54 54 -157 54 -291 l-1 -132 50 -51 c27 -27 55 -64
62 -81 8 -16 17 -30 21 -30 4 0 10 -20 14 -45 3 -25 10 -48 15 -51 5 -3 9 -18
9 -34 0 -16 4 -31 10 -35 11 -7 10 -135 -2 -135 -4 0 -8 15 -8 34 0 66 -31
209 -57 262 -14 29 -49 79 -76 110 l-51 56 -1 142 c-1 138 -9 185 -47 262 -11
23 -67 58 -108 67 -18 5 -34 23 -55 64 -37 71 -132 174 -203 220 -29 19 -72
53 -95 77 -24 24 -50 46 -58 49 -11 4 -10 6 2 6 9 1 38 -19 63 -44z m-216 3
c3 -16 -5 -18 -62 -18 -60 0 -66 2 -66 20 0 19 5 21 62 18 50 -2 63 -6 66 -20z
m-180 -5 c-3 -16 -112 -67 -131 -60 -18 6 29 48 68 62 53 19 67 18 63 -2z
m308 -4 c24 -11 46 -29 49 -40 9 -28 1 -33 -27 -16 -12 8 -40 20 -60 27 -35
11 -47 27 -31 43 10 11 24 8 69 -14z m-496 -26 c0 -5 -24 -24 -53 -43 -87 -58
-167 -141 -213 -220 -39 -68 -47 -77 -86 -88 -59 -16 -86 -42 -108 -104 -14
-41 -19 -47 -19 -26 -1 15 4 30 9 33 6 3 10 14 10 24 0 29 44 68 91 82 48 13
69 28 72 51 2 8 24 42 50 76 26 34 47 66 47 70 0 4 39 36 85 72 47 36 85 68
85 73 0 4 7 7 15 7 8 0 15 -3 15 -7z m365 -73 l0 -45 -62 -3 -63 -3 0 44 c0
24 3 47 7 51 4 4 32 6 63 4 l55 -3 0 -45z m-177 -11 c-3 -32 -5 -34 -37 -31
-19 2 -45 8 -59 13 -22 9 -24 12 -11 24 19 20 92 44 102 35 5 -4 7 -23 5 -41z
m315 26 c41 -17 1 -59 -51 -53 -19 2 -28 9 -30 26 -7 51 8 56 81 27z m61 -81
c3 -8 2 -12 -4 -9 -6 3 -10 10 -10 16 0 14 7 11 14 -7z m-181 -25 c34 -1 44
-3 29 -7 -12 -4 -62 -5 -110 -3 -76 4 -81 6 -42 11 25 4 51 5 58 3 8 -1 37 -3
65 -4z m154 5 c-3 -3 -12 -4 -19 -1 -8 3 -5 6 6 6 11 1 17 -2 13 -5z m83 -64
c0 -5 -3 -10 -7 -10 -5 0 -9 -12 -9 -28 -1 -15 1 -21 3 -14 4 10 8 10 19 1 11
-9 14 -8 14 5 0 10 5 14 10 11 6 -3 10 -14 10 -23 0 -9 12 -27 28 -40 25 -21
25 -22 4 -17 -16 5 -24 1 -29 -11 -4 -10 -2 -19 5 -22 7 -2 12 -8 12 -13 0 -6
-5 -7 -11 -3 -16 9 -30 -18 -17 -33 8 -10 7 -13 -3 -13 -19 1 -53 31 -63 55
-5 12 -10 15 -13 8 -3 -9 -10 -9 -29 -1 -13 6 -24 14 -24 18 0 4 -15 11 -32
14 -18 3 -40 11 -48 16 -13 8 -12 11 5 24 13 10 15 15 6 16 -11 0 -11 3 0 16
8 10 23 14 41 12 15 -3 25 -2 22 1 -3 3 16 13 43 22 60 21 63 21 63 9z m-572
-17 c20 -9 41 -15 46 -14 9 2 4 -31 -9 -63 -7 -15 -5 -17 6 -11 12 8 12 6 0
-8 -7 -9 -22 -17 -32 -17 -10 0 -34 -15 -53 -34 -24 -25 -32 -29 -29 -15 3 11
0 19 -6 19 -7 0 -9 5 -6 10 3 6 -3 10 -14 10 -25 0 -31 27 -13 64 15 31 18 30
-33 10 -19 -8 -20 13 -2 31 9 8 19 10 29 4 22 -12 48 -1 41 17 -7 19 28 18 75
-3z m622 13 c0 -3 -4 -8 -10 -11 -5 -3 -10 -1 -10 4 0 6 5 11 10 11 6 0 10 -2
10 -4z m-390 -49 c0 -8 -3 -16 -6 -19 -7 -8 -44 3 -44 13 0 5 7 6 15 3 8 -4
15 -1 15 5 0 6 5 11 10 11 6 0 10 -6 10 -13z m40 2 c0 -5 5 -7 10 -4 6 3 10 1
10 -5 0 -6 5 -8 10 -5 6 3 10 1 10 -4 0 -12 -40 -15 -55 -3 -16 12 -16 32 0
32 8 0 15 -5 15 -11z m75 -19 c8 0 17 -4 20 -10 4 -6 -5 -10 -19 -10 -21 0
-26 5 -25 23 0 12 3 16 6 10 2 -7 11 -13 18 -13z m-195 -9 c0 -11 -61 -21 -75
-13 -5 3 1 9 15 13 37 10 60 10 60 0z m-310 -5 c0 -3 -4 -8 -10 -11 -5 -3 -10
-1 -10 4 0 6 5 11 10 11 6 0 10 -2 10 -4z m553 -65 c27 -14 47 -30 48 -40 0
-9 21 -30 47 -47 26 -17 47 -35 47 -39 0 -5 -15 -17 -33 -28 -27 -16 -31 -16
-26 -3 3 9 10 16 15 16 5 0 9 6 9 14 0 18 -90 68 -153 85 -78 22 -182 11 -261
-28 -37 -18 -70 -30 -73 -27 -9 9 28 47 56 57 13 5 21 13 17 16 -3 4 15 17 41
30 42 21 59 24 133 20 62 -3 98 -10 133 -26z m-717 -57 c21 -74 16 -178 -10
-197 -19 -14 -14 -43 5 -32 14 9 11 -5 -5 -21 -21 -21 -26 -18 -26 19 0 17 -9
85 -20 151 -11 65 -17 122 -14 127 3 5 16 9 29 9 21 0 27 -8 41 -56z m196 34
c-7 -7 -12 -8 -12 -2 0 14 12 26 19 19 2 -3 -1 -11 -7 -17z m1028 5 c0 -5 -8
-57 -19 -118 -10 -60 -17 -129 -15 -152 2 -24 -1 -43 -5 -43 -12 0 -21 27 -15
44 3 9 -4 19 -17 26 -20 11 -21 17 -17 99 6 103 26 151 63 151 14 0 25 -3 25
-7z m-1320 -69 c0 -27 -4 -34 -20 -34 -22 0 -25 16 -10 55 13 34 30 23 30 -21z
m1370 10 c15 -38 13 -44 -15 -44 -26 0 -29 9 -19 48 8 29 22 28 34 -4z m-551
-27 c25 -12 46 -27 48 -33 4 -11 -183 -204 -196 -204 -4 0 -49 43 -101 96
-104 105 -106 113 -37 147 79 40 201 37 286 -6z m-389 -14 c0 -5 3 -19 7 -33
6 -24 6 -24 -19 -8 l-25 16 -27 -55 c-35 -72 -55 -160 -49 -217 4 -32 2 -46
-6 -46 -7 0 -9 5 -6 10 3 6 2 10 -2 10 -5 0 -10 23 -11 52 -1 29 -8 55 -14 59
-23 14 32 150 69 170 13 7 29 21 34 31 9 17 49 26 49 11z m-546 -173 l0 -149
-53 -56 c-29 -31 -56 -53 -60 -49 -3 4 0 9 7 11 6 3 12 10 12 17 0 11 36 45
73 68 8 5 10 55 8 157 -1 83 1 151 6 151 4 0 8 -67 7 -150z m124 77 c3 -46 3
-47 -27 -47 -29 0 -31 2 -31 38 0 77 53 85 58 9z m1370 41 c20 -20 15 -66 -9
-78 -34 -19 -45 -7 -41 44 4 48 23 61 50 34z m-383 -18 c3 -11 11 -19 17 -17
15 3 58 -81 58 -113 0 -14 -4 -40 -10 -59 -5 -18 -10 -51 -12 -72 -1 -21 -5
-36 -10 -33 -4 3 -8 -8 -8 -24 0 -21 -8 -35 -25 -46 -14 -9 -23 -21 -20 -26 4
-6 1 -10 -4 -10 -15 0 -14 5 12 53 19 36 22 57 22 147 0 93 -4 112 -27 163
-20 42 -23 57 -13 57 7 0 16 -9 20 -20z m-216 -105 l-105 -104 -49 49 c-56 57
-53 68 3 15 20 -19 40 -35 44 -35 10 0 108 102 108 113 0 4 5 7 11 7 7 0 28
16 47 36 19 19 37 33 40 29 3 -3 -42 -52 -99 -110z m-313 54 c54 -43 144 -138
144 -153 0 -13 -61 -74 -133 -131 -47 -37 -48 -38 -65 -19 -53 57 -65 203 -23
287 13 26 27 47 31 47 4 0 25 -14 46 -31z m488 -15 c28 -57 27 -192 -1 -255
-27 -60 -36 -65 -70 -37 -68 57 -153 142 -153 155 0 24 175 186 194 180 6 -2
20 -21 30 -43z m-403 -10 c23 -25 23 -26 2 -13 -13 7 -25 19 -27 26 -8 19 -2
16 25 -13z m837 -53 c7 -43 -7 -73 -31 -69 -17 2 -23 11 -25 36 -5 46 2 60 30
58 16 -1 24 -8 26 -25z m-1385 7 c-2 -5 -3 -24 -3 -43 0 -24 -5 -35 -15 -35
-18 0 -35 31 -35 65 0 23 4 26 28 23 15 -2 26 -6 25 -10z m637 -106 c0 -14
-138 -148 -145 -141 -4 5 132 149 141 149 2 0 4 -3 4 -8z m150 -77 c45 -47 81
-87 79 -89 -4 -5 -179 161 -179 169 0 16 25 -4 100 -80z m-809 12 c-8 -8 -11
-5 -11 9 0 27 14 41 18 19 2 -9 -1 -22 -7 -28z m858 -153 c-39 -48 -216 -67
-290 -32 -71 34 -70 38 30 140 l92 93 90 -93 c77 -78 89 -95 78 -108z m541
179 c0 -10 -4 -24 -9 -31 -7 -11 -10 -10 -15 3 -10 28 -7 45 9 45 8 0 15 -8
15 -17z m-1053 -20 c-4 -3 3 -21 14 -40 11 -18 19 -38 17 -45 -3 -7 -14 8 -26
33 -25 52 -26 59 -10 59 6 0 8 -3 5 -7z m-392 -38 c14 -20 44 -46 64 -60 34
-21 71 -75 71 -105 0 -6 -17 -18 -37 -26 -56 -24 -159 -11 -197 24 -43 41 -50
68 -27 107 27 46 72 95 86 95 7 0 25 -16 40 -35z m1548 0 c18 -19 42 -50 52
-69 18 -33 18 -36 2 -54 -9 -10 -17 -25 -17 -33 0 -36 -192 -63 -235 -33 -19
14 -19 14 3 14 26 0 30 20 5 20 -14 1 -12 6 11 24 16 13 26 30 24 37 -3 8 5
19 16 24 12 6 37 32 56 58 19 26 38 47 42 47 4 0 22 -16 41 -35z m-1713 -53
c0 -4 -6 -16 -13 -27 -20 -29 -45 -139 -52 -226 l-6 -77 -102 -5 c-56 -3 -114
-9 -129 -12 -19 -5 -28 -3 -28 5 0 7 8 9 19 5 11 -3 22 -1 26 5 4 6 48 10 106
10 l99 0 0 85 c0 50 4 85 10 85 6 0 10 10 10 21 0 30 41 139 51 139 5 0 9 -3
9 -8z m1161 -52 c5 0 9 -4 9 -10 0 -15 -20 -12 -38 7 -16 16 -16 16 1 10 10
-4 23 -7 28 -7z m-496 -10 c-3 -5 -10 -10 -16 -10 -5 0 -9 5 -9 10 0 6 7 10
16 10 8 0 12 -4 9 -10z m57 -52 c36 -25 124 -48 187 -48 53 0 112 16 168 47
25 14 44 19 48 13 3 -6 1 -10 -5 -10 -7 0 -9 -8 -5 -20 5 -14 2 -20 -9 -20 -9
0 -16 -4 -16 -9 0 -9 -8 -12 -63 -30 -24 -8 -26 -7 -16 5 9 11 8 14 -9 14 -11
0 -22 -8 -25 -20 -3 -11 -13 -20 -24 -20 -17 1 -17 1 1 15 17 13 17 14 -6 11
-13 -1 -28 -5 -34 -8 -5 -4 -16 -3 -24 3 -8 5 -28 9 -45 9 -43 0 -165 62 -165
84 0 11 11 7 42 -16z m-692 -8 c0 -5 -4 -10 -10 -10 -5 0 -10 5 -10 10 0 6 5
10 10 10 6 0 10 -4 10 -10z m47 -80 c37 0 22 -47 -18 -55 -35 -8 -37 -20 -7
-36 21 -11 21 -12 2 -26 -10 -7 -30 -13 -44 -11 -23 3 -25 7 -25 58 -1 30 3
72 8 93 l10 38 31 -30 c18 -17 37 -31 43 -31z m1732 28 c4 -13 9 -53 10 -90 2
-63 0 -68 -19 -68 -11 0 -23 7 -26 15 -5 13 -9 13 -22 3 -21 -18 -72 -19 -72
-2 0 8 4 14 9 14 5 0 13 9 16 20 6 20 35 28 35 10 0 -5 5 -10 10 -10 13 0 13
37 1 44 -5 4 -11 0 -14 -6 -2 -7 -8 -9 -13 -5 -5 5 -1 15 10 23 19 13 11 20
-18 15 -13 -3 -46 10 -46 17 0 11 54 9 62 -2 7 -10 38 16 38 33 0 20 30 11 39
-11z m-1699 -2 c0 -3 -4 -8 -10 -11 -5 -3 -10 -1 -10 4 0 6 5 11 10 11 6 0 10
-2 10 -4z m15 -127 c4 -5 -5 -9 -19 -9 -14 0 -26 4 -26 8 0 11 39 12 45 1z
m1965 -28 c0 -5 6 -11 13 -14 6 -2 3 -3 -8 -1 -11 2 -54 6 -95 10 -41 3 -77 8
-79 10 -2 2 35 4 82 4 48 0 87 -4 87 -9z m80 -21 c0 -5 -9 -10 -20 -10 -11 0
-20 5 -20 10 0 6 9 10 20 10 11 0 20 -4 20 -10z m-2545 -10 c-3 -5 -13 -10
-21 -10 -8 0 -14 5 -14 10 0 6 9 10 21 10 11 0 17 -4 14 -10z m2612 4 c-3 -3
-12 -4 -19 -1 -8 3 -5 6 6 6 11 1 17 -2 13 -5z m-1661 -12 c5 -5 40 -17 77
-27 58 -15 67 -20 55 -31 -11 -12 -21 -12 -49 -3 -35 12 -121 69 -103 69 6 0
14 -4 20 -8z m674 4 c0 -15 -103 -58 -145 -62 l-50 -4 60 25 c33 14 70 25 82
25 12 0 25 5 28 10 6 10 25 14 25 6z m1061 -5 c-12 -8 -51 -4 -51 5 0 2 15 4
33 4 22 0 28 -3 18 -9z m-2763 -16 c-79 -29 -298 -61 -298 -44 0 5 24 9 54 9
30 0 57 4 60 8 3 5 24 9 47 10 23 1 48 7 55 13 7 6 17 9 21 6 4 -2 17 -1 28 4
11 4 31 8 45 8 21 0 19 -3 -12 -14z m2699 -15 c19 -14 41 -20 79 -20 56 0 73
-15 29 -26 -31 -8 -124 14 -147 34 -40 34 -3 45 39 12z m130 14 c-3 -3 -12 -4
-19 -1 -8 3 -5 6 6 6 11 1 17 -2 13 -5z m96 -1 c-7 -2 -21 -2 -30 0 -10 3 -4
5 12 5 17 0 24 -2 18 -5z m-301 -47 c38 -36 55 -45 97 -51 57 -8 149 2 169 17
6 6 12 21 12 34 0 30 14 30 42 2 l21 -21 -35 -32 c-36 -33 -105 -55 -171 -55
-45 0 -121 25 -156 51 -34 25 -55 69 -44 92 8 14 20 7 65 -37z m-2362 20 c-9
-12 -7 -15 12 -14 13 1 31 8 41 16 12 10 17 11 17 3 0 -6 8 -11 18 -9 15 3 17
-5 15 -62 -2 -55 -1 -61 8 -35 5 17 12 41 15 55 11 56 14 61 30 46 8 -8 14
-22 14 -30 0 -22 7 -20 34 9 25 26 41 24 26 -5 -6 -11 -3 -26 11 -49 21 -35
27 -141 8 -141 -6 0 -9 -17 -8 -43 2 -23 -3 -51 -10 -62 -11 -18 -12 -17 -7
11 5 34 -8 56 -30 47 -16 -6 -46 60 -38 82 4 8 1 15 -6 15 -6 0 -18 7 -26 15
-23 22 -34 18 -34 -11 0 -16 -11 -36 -25 -50 -14 -13 -25 -19 -25 -14 0 6 -9
10 -20 10 -11 0 -20 -5 -20 -11 0 -8 -5 -7 -16 2 -10 8 -18 9 -22 3 -12 -17
-39 -23 -51 -11 -8 8 -11 8 -11 -1 0 -7 -5 -12 -11 -12 -6 0 -9 6 -6 14 3 8
-1 22 -8 33 -11 14 -14 15 -15 3 0 -12 -3 -11 -11 3 -13 23 -32 22 -54 -3 -14
-16 -20 -17 -27 -8 -4 7 -8 8 -8 3 0 -14 -43 -14 -52 -1 -5 7 -8 4 -8 -6 0
-26 -16 -30 -50 -13 -27 14 -30 14 -30 0 0 -17 -11 -20 -26 -5 -8 8 -19 8 -38
0 -34 -13 -49 -13 -41 0 3 6 2 10 -4 10 -5 0 -13 -4 -16 -10 -3 -5 -14 -10
-23 -10 -15 0 -15 2 -2 10 11 7 4 10 -27 10 -23 0 -44 -4 -47 -9 -8 -13 -55
-20 -58 -9 -2 6 -16 4 -31 -3 -23 -11 -30 -10 -37 1 -5 8 -28 13 -59 14 -33 1
-51 5 -51 13 0 27 -71 -30 -90 -72 -11 -24 -30 -52 -43 -62 -13 -10 -26 -26
-30 -35 -4 -11 -12 -15 -22 -11 -13 4 -14 8 -4 14 7 4 14 18 16 30 2 13 22 47
46 76 23 30 47 62 52 71 6 9 16 21 23 25 7 5 20 16 30 26 9 9 30 18 45 19 16
1 40 11 55 22 14 12 35 20 46 19 12 -2 39 1 61 5 75 13 115 16 115 8 0 -4 11
-12 24 -18 20 -9 26 -9 30 2 3 8 16 14 28 14 19 0 20 -2 8 -11 -12 -9 -11 -10
5 -4 11 4 26 10 34 13 11 4 13 0 8 -14 -6 -15 -3 -15 13 5 11 13 20 19 20 13
0 -5 9 -12 20 -15 11 -3 20 -2 20 2 0 13 53 33 59 23 3 -5 18 -8 34 -6 15 1
27 -2 27 -8 0 -5 7 -8 15 -4 9 3 15 0 15 -9 0 -8 7 -15 16 -15 13 0 15 7 10
33 -3 17 -2 26 2 19 6 -9 14 -6 32 13 13 14 30 25 39 25 11 0 8 -5 -8 -16 -16
-12 -20 -19 -11 -24 8 -5 28 7 52 31 39 37 74 55 48 25z m1699 -112 c-17 -35
-36 -67 -41 -70 -5 -3 -20 -24 -34 -46 -14 -22 -28 -38 -30 -35 -8 8 20 68 65
136 23 36 47 83 54 105 l12 41 3 -33 c2 -23 -7 -55 -29 -98z m1039 107 c2 -7
41 -11 118 -11 70 0 114 -4 114 -10 0 -7 -39 -9 -107 -7 -87 3 -116 7 -148 24
-38 21 -39 22 -10 19 16 -2 31 -8 33 -15z m812 7 c0 -5 -40 -8 -89 -8 -49 0
-103 -3 -122 -7 -28 -5 -31 -4 -20 8 10 10 42 14 122 14 60 0 109 -3 109 -7z
m-4965 -14 c-36 -10 -105 -10 -105 0 0 7 19 10 57 7 32 -2 54 -5 48 -7z m300
6 c8 -13 -25 -13 -45 0 -12 8 -9 10 12 10 15 0 30 -4 33 -10z m4864 -13 c-2
-2 -38 -1 -79 2 l-75 6 70 5 c61 4 99 -2 84 -13z m-5609 3 c0 -5 -15 -10 -34
-10 -19 0 -38 -4 -41 -10 -8 -13 -25 -13 -25 0 0 6 10 15 23 20 30 12 77 12
77 0z m2430 -181 c25 -28 52 -51 60 -52 9 -2 37 -15 62 -30 57 -33 62 -33 56
-2 -4 18 -1 25 10 25 21 0 52 -30 52 -50 0 -23 20 -40 47 -40 25 0 29 -10 11
-28 -8 -8 -15 -7 -27 6 -21 22 -75 27 -67 7 3 -9 -1 -15 -9 -15 -8 0 -15 5
-15 10 0 6 -5 10 -10 10 -19 0 -69 43 -63 53 3 6 1 7 -4 4 -6 -4 -18 2 -28 13
-10 11 -24 20 -31 20 -7 0 -36 23 -64 51 -55 54 -100 139 -100 187 0 21 8 12
37 -46 20 -40 58 -95 83 -123z m930 187 c0 -2 -7 -6 -15 -10 -8 -3 -15 -1 -15
4 0 6 7 10 15 10 8 0 15 -2 15 -4z m675 -6 c4 -6 12 -7 18 -3 28 17 49 8 77
-31 47 -68 112 -116 156 -116 26 0 27 0 9 -20 -10 -11 -30 -26 -45 -33 -26
-13 -27 -13 -27 15 0 37 -8 44 -37 29 -13 -7 -33 -10 -44 -7 -17 6 -20 3 -18
-11 3 -14 -3 -18 -30 -18 -26 0 -34 5 -39 23 -5 22 -6 22 -42 -13 -20 -19 -43
-35 -52 -34 -10 0 -12 2 -3 6 6 2 12 12 12 20 0 14 -3 13 -21 -3 -16 -14 -23
-15 -26 -6 -8 22 -23 12 -40 -28 -17 -39 -33 -52 -33 -27 0 9 -2 9 -9 -1 -7
-11 -10 -10 -15 3 -3 9 -4 21 0 26 3 5 0 9 -7 9 -8 0 -8 4 1 15 7 8 10 22 6
30 -3 8 -1 15 5 15 6 0 10 10 8 23 -3 32 33 108 50 105 10 -2 16 -21 19 -58 2
-30 6 -57 8 -59 9 -9 14 7 16 48 1 32 5 41 15 36 8 -3 17 -5 19 -5 3 0 2 -4
-1 -10 -10 -17 4 -11 25 10 18 18 20 25 5 18 -3 -2 -10 3 -15 11 -6 10 -2 20
12 33 24 20 34 22 43 8z m1114 -6 c2 -2 -19 -4 -48 -4 -29 0 -50 4 -47 9 5 8
85 4 95 -5z m776 6 c-44 -11 -75 -11 -75 0 0 6 23 9 53 9 44 -1 48 -2 22 -9z
m-5836 -21 c13 -11 21 -23 17 -27 -4 -4 -16 3 -25 15 -10 11 -29 23 -42 26
l-24 4 25 1 c14 1 36 -8 49 -19z m221 5 c0 -2 -14 -4 -31 -4 -16 0 -28 4 -25
9 5 8 56 3 56 -5z m556 6 c5 -5 50 -11 99 -13 l90 -3 -95 2 c-52 1 -117 6
-145 12 l-50 9 46 2 c25 0 49 -3 55 -9z m383 -6 c2 -2 -30 -4 -73 -4 -42 0
-75 4 -72 8 4 8 137 4 145 -4z m2071 7 c0 -15 -106 -53 -137 -49 -26 4 -26 5
14 16 23 7 54 19 70 27 32 17 53 19 53 6z m2680 -1 c0 -5 7 -10 15 -10 8 0 15
-4 15 -10 0 -15 -12 -12 -40 10 -20 16 -22 20 -7 20 9 0 17 -4 17 -10z m-304
-8 c-5 -8 -76 -4 -76 4 0 2 18 4 41 4 22 0 38 -4 35 -8z m144 4 c0 -3 -4 -8
-10 -11 -5 -3 -10 -1 -10 4 0 6 5 11 10 11 6 0 10 -2 10 -4z m-5954 -24 c-8
-14 -106 -26 -116 -16 -5 5 13 9 41 10 27 0 55 6 61 12 13 13 23 8 14 -6z
m2854 -24 c0 -10 -66 0 -92 14 -37 19 -16 25 37 10 30 -8 55 -19 55 -24z
m2233 35 c-24 -2 -62 -2 -85 0 -24 2 -5 4 42 4 47 0 66 -2 43 -4z m-4956 -13
c12 0 14 -17 11 -107 -4 -104 -5 -108 -26 -107 -12 0 -22 -4 -22 -10 0 -7 -3
-7 -10 0 -6 6 -12 58 -14 115 -4 105 2 125 32 114 8 -3 20 -5 29 -5z m193 6
c0 -2 -18 -6 -40 -8 -22 -2 -40 0 -40 4 0 5 18 8 40 8 22 0 40 -2 40 -4z
m3740 -6 c0 -5 -2 -10 -4 -10 -3 0 -8 5 -11 10 -3 6 -1 10 4 10 6 0 11 -4 11
-10z m1838 3 c-10 -2 -28 -2 -40 0 -13 2 -5 4 17 4 22 1 32 -1 23 -4z m161 0
c22 -6 23 -9 17 -72 -4 -36 -7 -83 -7 -104 -1 -26 -5 -35 -12 -28 -6 6 -14 5
-25 -5 -8 -8 -16 -13 -18 -11 -2 2 -6 41 -9 88 -4 46 -8 94 -11 106 -4 20 2
25 36 32 3 0 16 -2 29 -6z m-5149 -24 c19 -5 47 -9 63 -9 15 0 27 -5 27 -10 0
-7 6 -7 18 -1 10 5 24 6 31 1 11 -6 9 -11 -8 -19 -12 -7 -25 -10 -29 -7 -5 3
-23 -4 -42 -15 -52 -32 -83 -42 -77 -26 3 9 -1 14 -11 13 -23 -2 -64 -25 -58
-34 2 -4 -2 -15 -9 -25 -9 -13 -28 -17 -76 -18 -79 -2 -166 5 -175 14 -4 4
-13 2 -20 -4 -7 -6 -27 -8 -45 -5 -18 2 -41 -1 -53 -9 -30 -18 -72 -13 -68 10
2 10 -1 14 -8 10 -6 -4 -8 -16 -4 -28 6 -19 5 -20 -9 -9 -9 8 -21 11 -27 7 -7
-4 -14 2 -17 13 -5 20 -6 20 -29 -5 -13 -14 -26 -24 -28 -22 -13 16 -26 51
-21 60 4 5 2 16 -5 24 -9 11 -6 17 14 30 13 9 33 15 43 14 10 -2 31 0 46 4 18
5 34 3 43 -4 11 -9 14 -8 14 4 0 16 66 44 77 33 4 -3 12 -1 19 5 7 6 45 12 85
14 39 2 74 6 76 9 8 8 223 -4 263 -15z m4498 15 c12 -4 22 -11 22 -16 0 -5 -5
-6 -12 -2 -7 4 -8 3 -4 -4 10 -17 26 -15 26 3 0 8 9 15 21 15 12 0 17 -4 13
-11 -4 -8 11 -9 55 -5 38 4 61 2 61 -4 0 -6 5 -10 11 -10 5 0 7 5 4 11 -5 7 7
9 36 6 24 -2 45 -10 47 -17 4 -10 6 -10 12 0 9 14 66 0 63 -16 -2 -9 22 -22
45 -23 6 -1 11 4 10 10 -2 6 3 14 11 17 10 3 12 0 7 -13 -5 -14 -2 -16 14 -12
11 3 20 0 20 -6 0 -8 4 -7 9 2 13 20 31 4 31 -26 0 -22 -4 -25 -24 -21 -15 3
-27 0 -30 -8 -3 -8 -10 -14 -17 -14 -6 0 -9 7 -6 14 4 9 1 13 -6 11 -36 -11
-98 -14 -92 -5 3 5 -3 10 -14 10 -11 0 -23 -4 -26 -10 -3 -5 -14 -10 -24 -10
-10 0 -23 -10 -30 -22 l-12 -23 5 22 c4 25 -8 40 -19 23 -4 -6 -12 -7 -18 -3
-22 14 -50 10 -54 -7 -3 -12 -11 -16 -24 -13 -11 3 -19 0 -19 -8 0 -7 -3 -9
-7 -5 -4 4 3 16 17 27 l25 20 -33 -5 c-19 -2 -40 -13 -49 -23 -8 -10 -12 -13
-9 -6 6 10 -47 30 -66 25 -5 -1 -8 4 -8 11 0 7 -9 13 -20 14 -11 1 -18 -2 -15
-8 4 -5 1 -9 -4 -9 -11 0 -49 34 -53 48 -2 4 -11 6 -20 5 -10 -2 -18 4 -18 12
0 8 -5 15 -11 15 -5 0 -7 -4 -4 -10 3 -5 1 -10 -5 -10 -6 0 -10 8 -8 17 4 19
35 31 90 32 20 1 40 6 43 11 7 11 29 13 63 4z m812 2 c0 -2 -11 -6 -25 -8 -14
-3 -25 -1 -25 3 0 5 11 9 25 9 14 0 25 -2 25 -4z m-6467 -17 l72 -2 -84 -8
c-47 -4 -88 -6 -93 -3 -14 9 3 26 19 20 8 -3 47 -7 86 -7z m2594 -11 c-3 -8
-6 -5 -6 6 -1 11 2 17 5 13 3 -3 4 -12 1 -19z m1147 -13 c-22 -19 -53 -45 -70
-57 -34 -24 -59 -57 -50 -66 4 -3 23 2 42 12 20 9 39 15 41 12 3 -3 -9 -23
-26 -44 -17 -22 -31 -44 -31 -50 0 -18 -51 -43 -82 -40 -30 3 -31 4 -15 20 21
20 21 28 2 28 -8 0 -16 5 -16 10 -1 6 -2 16 -3 23 -2 25 198 186 233 187 7 0
-4 -16 -25 -35z m2996 25 c0 -5 23 -10 50 -10 31 0 50 -4 50 -11 0 -12 -32
-10 -185 15 l-80 14 83 1 c49 1 82 -3 82 -9z m-3507 -21 c16 -7 5 -8 -43 -4
-35 3 -69 10 -75 16 -12 14 82 4 118 -12z m-3388 -10 c-40 -7 -59 -4 -51 10 3
3 24 5 48 2 l43 -5 -40 -7z m3132 -20 c43 -23 85 -47 94 -55 8 -8 19 -14 24
-14 10 0 93 -37 115 -51 8 -5 23 -12 33 -15 9 -4 17 -13 17 -21 0 -12 -3 -13
-15 -3 -8 6 -18 9 -22 7 -20 -13 -122 27 -196 76 -45 29 -94 61 -109 70 -24
15 -39 47 -23 47 3 0 40 -18 82 -41z m2223 31 c0 -5 -9 -10 -19 -10 -11 0 -23
-5 -26 -10 -6 -10 4 -10 114 5 13 2 28 10 33 17 8 10 9 9 4 -4 -3 -12 2 -19
17 -24 27 -8 37 -22 37 -54 0 -14 5 -32 11 -40 9 -13 10 -12 5 3 -10 30 11 18
33 -19 12 -19 21 -47 21 -61 0 -15 11 -46 25 -70 14 -23 22 -43 17 -43 -13 0
-32 23 -32 40 -1 8 -14 33 -30 55 -37 51 -62 95 -54 95 9 0 -69 69 -78 70 -13
0 -9 -18 4 -22 6 -2 13 -13 14 -24 3 -17 -1 -20 -26 -16 -16 2 -28 7 -26 11 3
4 -6 8 -20 9 -18 1 -24 -3 -24 -19 0 -14 5 -19 14 -16 9 4 16 -3 19 -19 5 -29
-4 -31 -28 -4 -23 26 -55 26 -62 0 -4 -15 -9 -18 -18 -10 -10 8 -16 7 -23 -6
-7 -13 -18 -16 -46 -11 -19 3 -38 2 -41 -3 -6 -10 -65 -7 -82 3 -5 3 -32 4
-59 2 -42 -3 -46 -2 -31 9 23 18 22 29 -3 16 -27 -14 -26 4 2 22 14 10 19 19
13 28 -6 10 -10 8 -17 -9 -5 -15 -14 -21 -23 -17 -8 3 -17 1 -19 -3 -6 -9 -74
-6 -84 3 -3 3 9 9 26 12 33 7 42 19 20 27 -7 2 -9 8 -5 13 4 5 11 3 15 -4 5
-6 19 -13 32 -14 19 -2 25 2 25 16 0 14 13 23 48 33 26 7 47 17 47 22 0 5 11
8 25 7 14 0 25 -4 25 -8 0 -5 23 -8 51 -8 37 0 48 -3 43 -12 -6 -10 -4 -10 7
0 7 6 24 12 38 12 13 0 21 3 17 7 -3 4 6 12 21 19 35 16 53 17 53 4z m1335 -5
c55 -4 129 -13 164 -21 35 -8 66 -12 69 -9 3 3 10 1 16 -4 6 -4 40 -11 76 -15
92 -10 132 -15 150 -21 8 -2 42 -7 75 -10 33 -3 74 -10 90 -15 17 -5 50 -12
75 -16 65 -10 238 -62 266 -80 24 -16 23 -40 -2 -30 -7 3 -16 1 -19 -4 -9 -15
-25 -12 -25 4 0 16 -14 22 -83 32 -26 3 -50 10 -53 15 -3 5 -32 9 -64 9 -32 0
-62 5 -65 10 -3 6 -17 7 -30 4 -12 -3 -26 -1 -29 5 -4 6 -16 11 -27 11 -11 0
-18 -4 -15 -9 4 -5 -32 -9 -84 -9 -50 1 -93 5 -96 10 -10 16 -42 9 -40 -9 1
-14 -6 -17 -34 -14 l-35 3 25 -24 c14 -14 68 -56 120 -95 119 -88 137 -107
120 -128 -20 -24 -58 -18 -92 14 -18 16 -74 53 -125 81 -51 28 -93 55 -93 60
0 5 -18 14 -39 20 -22 6 -52 17 -68 25 -32 17 -56 72 -40 93 14 17 2 26 -19
14 -12 -7 -28 -5 -50 4 -49 21 -73 17 -111 -16 -49 -43 -59 -39 -62 21 -1 29
-4 56 -7 60 -3 5 -2 18 1 30 5 16 13 19 33 15 15 -3 72 -8 127 -11z m-6271
-18 c21 -103 14 -127 -37 -124 -17 2 -38 6 -45 11 -8 4 -23 1 -38 -8 -19 -13
-25 -14 -29 -4 -6 15 -55 23 -55 10 0 -4 5 -13 12 -20 16 -16 2 -28 -16 -13
-11 10 -19 7 -38 -11 -53 -50 -157 -115 -194 -121 -10 -1 -23 -5 -29 -9 -62
-38 -173 -88 -187 -85 -13 4 -20 -2 -24 -19 -3 -13 -10 -24 -16 -24 -5 0 -7 4
-4 9 3 5 -1 11 -9 15 -19 7 -19 26 0 26 8 0 15 5 15 11 0 15 43 54 114 104 32
22 67 52 78 68 10 15 26 27 33 27 8 0 17 5 21 11 7 12 -20 8 -60 -7 -14 -5
-15 -2 -6 20 9 25 8 26 -11 16 -11 -6 -29 -8 -40 -5 -12 4 -36 -2 -60 -14 -40
-21 -99 -28 -99 -13 0 5 -16 9 -35 10 -19 1 -35 -3 -35 -9 0 -6 -5 -7 -11 -3
-10 6 -157 -12 -189 -23 -8 -3 -31 -6 -51 -8 -21 -2 -47 -9 -60 -16 -16 -8
-24 -9 -27 -1 -2 6 -10 8 -18 5 -10 -3 -12 0 -8 10 3 8 43 27 92 41 48 15 107
33 132 41 25 8 90 21 145 30 55 8 170 26 255 40 177 28 303 44 375 48 161 8
154 9 159 -16z m3016 13 c0 -5 -2 -10 -4 -10 -3 0 -8 5 -11 10 -3 6 -1 10 4
10 6 0 11 -4 11 -10z m-3520 -10 c0 -5 -16 -10 -36 -10 -21 0 -33 4 -29 10 3
6 19 10 36 10 16 0 29 -4 29 -10z m2880 -56 c17 -36 30 -68 27 -70 -6 -6 -56
82 -63 113 -10 40 2 25 36 -43z m1380 62 c0 -3 -4 -8 -10 -11 -5 -3 -10 -1
-10 4 0 6 5 11 10 11 6 0 10 -2 10 -4z m2920 -6 c0 -12 -34 -12 -70 0 -20 7
-16 8 23 9 26 1 47 -3 47 -9z m-7260 -14 c0 -8 -61 -12 -66 -4 -3 4 11 8 30 8
20 0 36 -2 36 -4z m7344 -6 c-6 -6 -21 -6 -39 -1 -30 9 -30 9 10 10 25 1 36
-2 29 -9z m-7453 -12 c-23 -6 -37 -6 -44 1 -8 8 2 11 34 10 l44 -1 -34 -10z
m7580 2 c11 0 19 -4 19 -9 0 -12 -112 -2 -125 12 -7 6 6 8 39 3 27 -3 57 -6
67 -6z m-7652 -16 c2 -2 -10 -4 -27 -4 -18 0 -32 5 -32 10 0 9 47 4 59 -6z
m-94 -14 c-27 -12 -35 -12 -35 0 0 6 12 10 28 9 24 0 25 -1 7 -9z m4580 -11
c-12 -37 -103 -173 -125 -187 -18 -11 -20 -10 -20 14 0 14 5 34 10 45 8 15 7
19 -5 19 -8 0 -15 4 -15 8 0 9 57 35 80 36 8 1 16 9 18 19 4 19 41 64 55 66 5
1 5 -9 2 -20z m3288 10 c-8 -8 -19 -8 -40 -1 -28 10 -28 10 12 11 28 1 36 -2
28 -10z m-7943 -13 c-64 -24 -80 -27 -80 -19 0 11 56 30 90 31 21 0 19 -2 -10
-12z m1820 -6 c0 -5 -7 -10 -15 -10 -8 0 -15 5 -15 10 0 6 7 10 15 10 8 0 15
-4 15 -10z m3580 0 c0 -5 -7 -10 -16 -10 -8 0 -12 5 -9 10 3 6 10 10 16 10 5
0 9 -4 9 -10z m2630 0 l25 -8 -25 0 c-14 0 -36 4 -50 8 l-25 8 25 0 c14 0 36
-4 50 -8z m-1333 -16 c-3 -3 -12 -4 -19 -1 -8 3 -5 6 6 6 11 1 17 -2 13 -5z
m-6854 -22 c-34 -10 -65 -20 -69 -24 -10 -11 -24 -10 -24 1 0 9 30 21 62 25
10 2 21 6 25 9 3 4 20 7 37 6 24 -1 17 -5 -31 -17z m6634 -6 c-8 -8 -17 -12
-21 -9 -3 3 2 12 12 19 22 16 29 9 9 -10z m1658 14 c3 -5 -1 -10 -9 -10 -9 0
-16 5 -16 10 0 6 4 10 9 10 6 0 13 -4 16 -10z m-5800 -10 c3 -5 1 -10 -4 -10
-6 0 -11 5 -11 10 0 6 2 10 4 10 3 0 8 -4 11 -10z m4811 -17 c-10 -10 -19 5
-10 18 6 11 8 11 12 0 2 -7 1 -15 -2 -18z m1031 11 c-3 -3 -12 -4 -19 -1 -8 3
-5 6 6 6 11 1 17 -2 13 -5z m-4896 -59 c7 -22 12 -43 11 -47 -1 -5 5 -8 14 -8
14 0 13 -2 -1 -17 -19 -19 -15 -81 7 -94 15 -9 14 -11 22 24 4 19 3 26 -4 22
-6 -4 -10 4 -10 18 0 20 4 24 20 20 16 -4 19 -13 18 -60 -1 -30 -5 -56 -10
-59 -4 -3 -8 -1 -8 5 0 6 -7 8 -15 5 -20 -8 -9 -24 18 -25 12 0 16 -3 10 -6
-7 -2 -13 -11 -13 -19 0 -9 5 -12 10 -9 6 3 10 -5 10 -18 0 -28 -16 -37 -64
-37 l-33 0 -7 61 c-9 92 -7 305 3 294 5 -6 15 -28 22 -50z m189 8 c0 -7 4 -13
9 -13 4 0 24 -14 42 -31 99 -88 195 -132 369 -166 44 -9 164 -3 263 12 39 6
46 5 42 -7 -3 -8 -1 -26 4 -41 14 -37 9 -39 -130 -53 -54 -6 -57 -5 -79 26
-12 17 -27 29 -34 27 -6 -2 -19 0 -30 5 -10 6 -46 12 -80 14 -101 7 -114 9
-109 17 2 4 0 7 -6 7 -5 0 -18 3 -28 7 -16 6 -16 5 -4 -10 12 -15 11 -17 -8
-17 -14 0 -23 8 -27 25 -3 14 -19 32 -35 41 -16 8 -29 19 -29 24 0 6 -6 10
-13 10 -7 0 -24 12 -39 28 -14 15 -46 46 -70 69 -25 23 -45 49 -45 58 0 13 3
13 19 -2 10 -9 18 -22 18 -30z m1230 -133 l0 -181 -37 2 c-71 4 -74 8 -67 112
4 51 11 99 16 107 6 11 7 9 3 -7 -5 -17 -2 -23 9 -23 19 0 20 -12 4 -28 -10
-10 -10 -15 2 -22 9 -6 17 -5 22 3 4 7 11 10 15 7 4 -3 9 10 10 28 1 17 -3 32
-8 32 -6 0 -6 7 -1 18 5 9 7 23 5 30 -5 13 16 102 23 102 2 0 4 -81 4 -180z
m710 176 c0 -3 -4 -8 -10 -11 -5 -3 -10 -1 -10 4 0 6 5 11 10 11 6 0 10 -2 10
-4z m2805 -6 c3 -5 2 -10 -4 -10 -5 0 -13 5 -16 10 -3 6 -2 10 4 10 5 0 13 -4
16 -10z m-4845 -4 c0 -2 -7 -6 -15 -10 -8 -3 -15 -1 -15 4 0 6 7 10 15 10 8 0
15 -2 15 -4z m-3638 -50 c-3 -27 1 -37 17 -48 24 -14 28 -28 8 -28 -21 0 -48
56 -41 85 9 37 21 31 16 -9z m1068 24 c-19 -13 -30 -13 -30 0 0 6 10 10 23 10
18 0 19 -2 7 -10z m1755 0 c3 -5 1 -10 -4 -10 -6 0 -11 5 -11 10 0 6 2 10 4
10 3 0 8 -4 11 -10z m2815 0 c0 -5 -5 -10 -11 -10 -5 0 -7 5 -4 10 3 6 8 10
11 10 2 0 4 -4 4 -10z m2885 -1 c4 -6 4 -25 1 -43 -5 -24 -16 -38 -45 -54 -22
-13 -41 -26 -43 -31 -5 -13 -48 -24 -48 -12 0 6 7 11 15 11 8 0 15 4 15 9 0 5
13 14 29 19 50 18 71 46 61 81 -8 30 2 43 15 20z m-5145 -3 c0 -3 -4 -8 -10
-11 -5 -3 -10 -1 -10 4 0 6 5 11 10 11 6 0 10 -2 10 -4z m1380 -1 c0 -2 -9 -9
-20 -15 -16 -9 -18 -8 -14 5 5 13 34 22 34 10z m2464 -40 c-4 -8 -8 -15 -10
-15 -2 0 -4 7 -4 15 0 8 4 15 10 15 5 0 7 -7 4 -15z m-2544 -39 c0 -3 -4 -8
-10 -11 -5 -3 -10 -1 -10 4 0 6 5 11 10 11 6 0 10 -2 10 -4z m-580 -23 c0 -2
-9 -13 -20 -25 -11 -13 -20 -16 -20 -9 0 7 -10 12 -22 11 -39 -4 -54 0 -74 16
-18 15 -18 15 11 10 64 -13 77 -13 81 -1 5 11 44 10 44 -2z m-4003 -13 c21
-11 45 -20 53 -20 13 0 13 -1 0 -10 -20 -12 -47 -3 -79 26 -31 29 -23 30 26 4z
m1100 14 c-3 -3 -12 -4 -19 -1 -8 3 -5 6 6 6 11 1 17 -2 13 -5z m3303 -3 c0
-5 -7 -11 -14 -14 -10 -4 -13 -1 -9 9 6 15 23 19 23 5z m3577 -27 c42 -18 43
-28 1 -19 -28 7 -30 5 -23 -11 14 -33 17 -91 5 -99 -8 -5 -9 3 -5 29 7 37 -11
81 -42 99 -7 4 -13 13 -13 18 0 11 20 6 77 -17z m-7593 -11 c-34 -36 -41 -71
-21 -105 17 -30 14 -36 -9 -14 -16 17 -19 69 -4 97 9 16 7 19 -10 19 -12 0
-35 -7 -52 -16 -22 -11 -29 -12 -26 -3 4 11 101 46 135 48 7 1 1 -11 -13 -26z
m3961 7 c-3 -5 -10 -10 -16 -10 -5 0 -9 5 -9 10 0 6 7 10 16 10 8 0 12 -4 9
-10z m185 -16 c0 -8 -4 -12 -10 -9 -5 3 -10 10 -10 16 0 5 5 9 10 9 6 0 10 -7
10 -16z m3750 6 c0 -5 -10 -10 -22 -10 -19 0 -20 2 -8 10 19 13 30 13 30 0z
m-8180 -16 c0 -2 -7 -4 -15 -4 -8 0 -15 4 -15 10 0 5 7 7 15 4 8 -4 15 -8 15
-10z m889 -3 c10 -6 8 -9 -8 -14 -11 -3 -21 -1 -21 4 0 10 -91 10 -105 -1 -5
-4 -37 -10 -70 -14 l-60 -6 50 15 c28 8 64 19 80 24 31 10 109 5 134 -8z m231
9 c0 -5 -5 -10 -11 -10 -5 0 -7 5 -4 10 3 6 8 10 11 10 2 0 4 -4 4 -10z m6180
1 c0 -5 -12 -11 -27 -14 -16 -3 -41 -9 -58 -13 -16 -4 -27 -4 -24 0 4 4 15 8
25 10 11 3 30 9 44 15 32 13 40 13 40 2z m100 -17 l55 -12 -57 -1 c-33 -1 -58
3 -58 9 0 6 -7 10 -15 10 -8 0 -15 5 -15 11 0 7 7 8 18 4 9 -5 42 -14 72 -21z
m-355 6 c3 -5 -1 -10 -10 -10 -9 0 -13 5 -10 10 3 6 8 10 10 10 2 0 7 -4 10
-10z m920 0 c3 -5 31 -10 62 -10 69 0 62 -14 -8 -15 -29 -1 -54 4 -61 12 -5 7
-14 11 -18 8 -5 -3 -11 -1 -15 5 -3 5 3 10 14 10 11 0 23 -4 26 -10z m158 3
c-7 -2 -19 -2 -25 0 -7 3 -2 5 12 5 14 0 19 -2 13 -5z m-7983 -15 c0 -5 -27
-8 -60 -8 -33 0 -60 3 -60 8 0 4 27 7 60 7 33 0 60 -3 60 -7z m840 -13 l35
-14 -35 3 c-19 1 -44 7 -55 14 l-20 11 20 0 c11 0 36 -7 55 -14z m3450 5 c0
-5 -5 -10 -11 -10 -5 0 -7 5 -4 10 3 6 8 10 11 10 2 0 4 -4 4 -10z m2745 -10
c-3 -5 -23 -9 -43 -9 l-37 2 40 7 c22 4 41 8 43 9 2 0 0 -3 -3 -9z m-6585 -10
c-8 -5 -23 -10 -32 -10 -10 0 -36 -10 -58 -21 -23 -12 -44 -19 -47 -15 -9 8
97 55 127 55 20 1 22 -1 10 -9z m6948 3 c-10 -2 -26 -2 -35 0 -10 3 -2 5 17 5
19 0 27 -2 18 -5z m-6483 -13 c18 -8 17 -9 -7 -9 -16 -1 -28 4 -28 9 0 12 8
12 35 0z m3305 6 c0 -2 -7 -7 -16 -10 -8 -3 -12 -2 -9 4 6 10 25 14 25 6z
m2595 -5 c3 -5 -25 -12 -62 -16 -38 -3 -75 -10 -84 -15 -9 -4 -22 -5 -29 0 -7
5 17 13 61 20 41 7 79 14 84 15 18 6 24 5 30 -4z m132 3 c-3 -3 -12 -4 -19 -1
-8 3 -5 6 6 6 11 1 17 -2 13 -5z m500 0 c-3 -3 -12 -4 -19 -1 -8 3 -5 6 6 6
11 1 17 -2 13 -5z m-6394 -11 c-7 -2 -19 -2 -25 0 -7 3 -2 5 12 5 14 0 19 -2
13 -5z m52 -3 c18 -8 17 -9 -7 -9 -16 -1 -28 4 -28 9 0 12 8 12 35 0z m5794
-6 c2 -2 -12 -4 -32 -4 -20 0 -37 4 -37 10 0 8 58 3 69 -6z m586 6 c3 -5 -1
-10 -9 -10 -9 0 -16 5 -16 10 0 6 4 10 9 10 6 0 13 -4 16 -10z m-6490 -10
c-28 -12 -45 -12 -45 0 0 6 15 10 33 9 27 0 29 -2 12 -9z m190 -10 c18 -8 17
-9 -7 -9 -15 -1 -30 4 -33 9 -7 12 12 12 40 0z m6335 6 c0 -3 -4 -8 -10 -11
-5 -3 -10 -1 -10 4 0 6 5 11 10 11 6 0 10 -2 10 -4z m-905 -16 c-3 -5 -18 -10
-33 -9 l-27 1 25 8 c35 11 42 11 35 0z m-6315 -4 c0 -3 -4 -8 -10 -11 -5 -3
-10 -1 -10 4 0 6 5 11 10 11 6 0 10 -2 10 -4z m7271 -7 c11 -5 39 -14 62 -19
l42 -8 -36 -1 c-19 -1 -53 8 -75 19 -21 10 -33 19 -26 20 7 0 22 -5 33 -11z
m-6226 -21 c13 -5 4 -6 -25 -2 -25 3 -49 10 -55 15 -11 11 48 1 80 -13z m2335
12 c0 -5 -4 -10 -9 -10 -6 0 -13 5 -16 10 -3 6 1 10 9 10 9 0 16 -4 16 -10z
m2870 0 c0 -5 -19 -9 -42 -9 -40 1 -41 2 -13 9 44 11 55 11 55 0z m1150 0 c0
-5 -5 -10 -11 -10 -5 0 -7 5 -4 10 3 6 8 10 11 10 2 0 4 -4 4 -10z m-3930 -16
c0 -2 -7 -4 -15 -4 -8 0 -15 4 -15 10 0 5 7 7 15 4 8 -4 15 -8 15 -10z m137 3
c-2 -7 -29 -12 -63 -13 -54 -2 -56 -1 -31 10 36 16 99 18 94 3z m-3699 -4
c-10 -2 -26 -2 -35 0 -10 3 -2 5 17 5 19 0 27 -2 18 -5z m1284 -3 c96 0 100
-6 8 -13 -75 -5 -132 1 -124 15 3 5 13 7 21 4 8 -3 51 -6 95 -6z m296 3 c-26
-2 -71 -2 -100 0 -29 2 -8 3 47 3 55 0 79 -1 53 -3z m4300 0 c-94 -2 -158 -7
-158 -13 0 -13 -77 -13 -85 -1 -7 13 58 17 245 17 l155 0 -157 -3z m362 -3
c-8 -5 -23 -7 -32 -4 -10 3 -18 1 -18 -5 0 -6 -9 -11 -20 -11 -11 0 -20 4 -20
9 0 10 28 18 75 19 23 1 26 -1 15 -8z m-4425 -14 l60 -14 -45 -1 c-26 -1 -50
3 -55 8 -6 6 -30 11 -55 14 l-45 4 40 1 c22 1 67 -5 100 -12z m3785 -8 c-14
-5 -50 -11 -80 -13 l-55 -4 50 14 c28 7 64 13 80 13 l30 1 -25 -11z m-3670
-18 c0 -5 -11 -10 -25 -10 -14 0 -25 5 -25 10 0 6 11 10 25 10 14 0 25 -4 25
-10z m3530 -10 c0 -5 -15 -10 -32 -9 -31 1 -32 1 -8 9 35 11 40 11 40 0z
m-3432 -7 c-10 -2 -26 -2 -35 0 -10 3 -2 5 17 5 19 0 27 -2 18 -5z m1102 -20
c0 -15 3 -51 6 -79 8 -63 1 -68 -98 -78 -80 -9 -83 -6 -93 101 l-7 72 33 3
c19 2 62 4 97 6 l62 3 0 -28z m1304 17 c19 -7 24 -15 21 -32 -3 -13 -6 -47 -9
-76 -2 -29 -7 -56 -10 -59 -7 -7 -86 -6 -138 3 -36 6 -38 7 -38 45 0 47 17 52
22 7 l3 -32 70 0 70 -1 5 35 c3 19 3 46 0 60 -5 22 -14 26 -63 34 -63 9 -87
-1 -87 -38 -1 -17 -2 -18 -9 -6 -5 8 -7 27 -4 43 5 26 7 27 74 27 37 0 79 -4
93 -10z m629 3 c-13 -2 -33 -2 -45 0 -13 2 -3 4 22 4 25 0 35 -2 23 -4z m321
-14 c-4 -7 -195 -7 -262 1 -2 0 -1 3 1 8 3 4 64 6 136 4 82 -2 129 -7 125 -13z
m-3215 -5 c2 -2 -21 -4 -52 -4 -31 0 -57 4 -57 10 0 8 99 3 109 -6z m2786 6
c3 -6 -4 -10 -17 -10 -18 0 -20 2 -8 10 19 12 18 12 25 0z m-2540 -20 c-3 -5
-44 -10 -91 -10 -49 0 -84 4 -84 10 0 6 37 10 91 10 57 0 88 -4 84 -10z m124
-20 c13 -8 12 -9 -6 -10 -12 0 -25 5 -28 10 -3 6 -17 10 -30 10 -13 0 -26 4
-29 9 -7 10 69 -5 93 -19z m2371 26 c0 -3 -4 -8 -10 -11 -5 -3 -10 -1 -10 4 0
6 5 11 10 11 6 0 10 -2 10 -4z m-30 -16 c0 -5 -7 -10 -16 -10 -8 0 -12 5 -9
10 3 6 10 10 16 10 5 0 9 -4 9 -10z m-40 -20 c0 -5 -5 -10 -12 -10 -6 0 -22
-10 -35 -22 -13 -12 -26 -19 -29 -16 -3 4 12 18 33 32 43 30 43 30 43 16z
m-2240 -24 c0 -2 -9 -2 -20 1 -11 3 -20 9 -20 15 0 5 9 4 20 -2 11 -6 20 -12
20 -14z m90 -76 c18 -25 19 -30 6 -30 -9 0 -16 8 -16 18 0 9 -16 28 -35 42
-19 14 -35 29 -35 33 0 14 58 -32 80 -63z m590 48 c14 -15 17 -24 9 -29 -7 -4
-9 -14 -6 -23 4 -9 2 -16 -2 -16 -12 0 -21 27 -15 44 3 7 -2 21 -11 30 -9 9
-12 16 -6 16 6 0 19 -10 31 -22z m50 -14 c0 -8 -4 -14 -9 -14 -11 0 -22 26
-14 34 9 9 23 -3 23 -20z m35 -2 c-3 -3 -11 0 -18 7 -9 10 -8 11 6 5 10 -3 15
-9 12 -12z m695 -2 c0 -5 -2 -10 -4 -10 -3 0 -8 5 -11 10 -3 6 -1 10 4 10 6 0
11 -4 11 -10z m-30 -15 c0 -8 -2 -15 -4 -15 -2 0 -6 7 -10 15 -3 8 -1 15 4 15
6 0 10 -7 10 -15z m672 -27 c-8 -8 -12 -63 -13 -177 -1 -92 -5 -224 -9 -296
-6 -94 -7 -48 -4 164 4 276 8 321 32 321 3 0 1 -5 -6 -12z m-1985 -450 c-1
-79 -3 -15 -3 142 0 157 2 221 3 143 2 -79 2 -207 0 -285z m1036 377 c58 -17
98 -48 120 -91 19 -39 30 -111 17 -119 -6 -3 -10 4 -10 18 0 35 -58 117 -100
141 -42 25 -132 26 -177 2 -30 -15 -84 -76 -96 -106 -3 -9 -6 -5 -6 11 -1 30
33 84 71 112 20 15 81 38 126 46 2 1 27 -6 55 -14z m641 -42 c-2 -27 -6 -59
-9 -73 -3 -14 -6 -44 -7 -68 -1 -24 -5 -45 -10 -48 -4 -3 -8 -15 -8 -26 0 -12
-3 -18 -7 -15 -3 4 -17 0 -30 -8 -13 -9 -23 -12 -23 -8 0 10 -20 -19 -20 -29
0 -4 7 -5 15 -2 8 4 15 2 15 -4 0 -12 -29 -24 -40 -17 -10 6 -2 71 11 97 6 10
5 19 -1 23 -5 3 -7 18 -4 33 4 23 6 46 13 130 1 6 5 12 9 12 5 0 8 -19 7 -42
0 -24 3 -48 7 -54 5 -7 2 -14 -7 -18 -8 -3 -15 -10 -15 -15 0 -6 7 -8 15 -5 9
4 15 0 15 -7 0 -11 2 -11 10 1 5 8 7 25 3 37 -3 14 -1 23 7 23 6 0 8 5 5 10
-3 6 3 27 14 48 10 20 22 45 25 55 10 31 15 18 10 -30z m-1374 2 c0 -7 6 -15
13 -17 6 -3 13 -18 13 -34 3 -43 3 -46 12 -40 5 3 13 -17 18 -44 8 -37 7 -52
-3 -66 -7 -10 -13 -14 -13 -8 0 5 -4 2 -10 -6 -11 -18 -21 -9 -22 21 0 13 -4
44 -9 69 -14 71 -19 151 -8 145 5 -4 9 -12 9 -20z m103 -151 c3 -49 9 -103 13
-121 6 -31 5 -32 -27 -31 -57 0 -69 7 -69 38 0 31 14 47 25 30 10 -16 35 8 28
26 -3 8 0 14 5 14 8 0 8 9 1 28 -5 15 -9 37 -8 47 1 11 1 37 1 59 -2 35 -4 37
-19 25 -14 -12 -14 -9 3 19 l19 33 11 -38 c7 -22 14 -79 17 -129z m615 95 c-6
-4 -20 -3 -29 2 -11 6 -31 4 -58 -6 -40 -14 -41 -14 -31 5 6 11 14 20 18 21
30 3 67 11 71 15 2 2 13 -4 23 -13 14 -12 15 -18 6 -24z m892 -51 c-1 -40 -2
-127 -1 -194 2 -126 -8 -174 -34 -174 -8 0 -15 2 -15 4 0 2 -3 13 -6 23 -4 12
-3 14 3 6 5 -7 9 29 8 90 0 105 6 171 25 266 5 29 10 56 10 59 0 3 3 3 6 -1 4
-3 5 -39 4 -79z m-1840 10 c0 -15 5 -28 12 -28 8 0 7 -5 -3 -15 -17 -17 -14
-75 3 -75 6 0 8 -6 5 -13 -5 -14 17 -39 27 -30 3 4 6 1 6 -5 0 -7 -7 -12 -15
-12 -8 0 -15 -4 -15 -9 0 -5 -3 -17 -7 -27 -4 -11 -3 -15 4 -11 17 11 22 -15
16 -82 -6 -64 -9 -68 -36 -48 -15 10 -17 38 -20 215 -2 169 -1 201 10 186 7
-10 13 -30 13 -46z m1004 34 c2 -4 1 -14 -4 -21 -6 -11 -10 -9 -19 8 -10 17
-9 21 3 21 8 0 17 -4 20 -8z m-194 -12 c0 -5 -5 -10 -11 -10 -5 0 -7 5 -4 10
3 6 8 10 11 10 2 0 4 -4 4 -10z m121 -10 c22 -12 24 -28 7 -65 -14 -31 -32
-32 -68 -2 -26 22 -27 25 -11 44 13 17 29 27 49 32 2 1 12 -4 23 -9z m-271
-24 c0 -31 -14 -40 -30 -21 -15 18 -6 45 15 45 9 0 15 -9 15 -24z m523 3 c3
-13 0 -22 -10 -26 -15 -6 -33 12 -33 35 0 21 37 14 43 -9z m-145 -13 c6 -13 8
-34 5 -45 -4 -15 1 -27 13 -37 18 -14 18 -14 -6 -12 -21 3 -24 8 -25 45 0 23
-3 45 -7 49 -11 10 -10 24 0 24 5 0 14 -11 20 -24z m-248 -30 c0 -3 -4 -8 -10
-11 -5 -3 -10 -1 -10 4 0 6 5 11 10 11 6 0 10 -2 10 -4z m40 -30 c0 -3 -4 -8
-10 -11 -5 -3 -10 -1 -10 4 0 6 5 11 10 11 6 0 10 -2 10 -4z m-80 -22 c0 -2
-12 -4 -26 -4 -14 0 -23 4 -20 9 6 8 46 4 46 -5z m210 -18 c0 -3 -4 -8 -10
-11 -5 -3 -10 -1 -10 4 0 6 5 11 10 11 6 0 10 -2 10 -4z m-83 -61 c21 -6 53 7
81 33 20 18 39 15 45 -8 7 -26 -31 -46 -95 -49 -48 -3 -91 16 -102 46 -11 29
6 35 28 10 11 -14 31 -28 43 -32z m3 45 c0 -5 -2 -10 -4 -10 -3 0 -8 5 -11 10
-3 6 -1 10 4 10 6 0 11 -4 11 -10z m35 -10 c3 -5 -1 -10 -10 -10 -9 0 -13 5
-10 10 3 6 8 10 10 10 2 0 7 -4 10 -10z m655 -18 c-1 -17 -19 -34 -29 -28 -18
12 -13 32 9 33 11 1 20 -1 20 -5z m-795 -42 c3 -5 1 -10 -4 -10 -6 0 -11 5
-11 10 0 6 2 10 4 10 3 0 8 -4 11 -10z m265 -10 c0 -5 -4 -10 -10 -10 -5 0
-10 5 -10 10 0 6 5 10 10 10 6 0 10 -4 10 -10z m852 -372 c-6 -6 -9 13 -7 54
5 88 8 93 12 19 2 -35 0 -68 -5 -73z m-1961 -145 c1 -200 6 -264 24 -305 4
-11 3 -18 -4 -18 -6 0 -11 9 -11 20 0 11 -4 20 -10 20 -6 0 -10 91 -10 252 0
138 2 249 4 247 3 -3 6 -100 7 -216z m1239 123 c0 -3 -4 -8 -10 -11 -5 -3 -10
-1 -10 4 0 6 5 11 10 11 6 0 10 -2 10 -4z m660 -126 c0 -67 -4 -110 -10 -110
-5 0 -10 -4 -10 -10 0 -5 6 -9 13 -7 17 3 17 -108 0 -150 -29 -71 -36 -39 -18
73 3 17 1 44 -5 60 -8 20 -8 35 1 57 8 19 9 31 2 35 -5 4 -8 23 -5 42 2 19 4
49 4 65 -1 38 5 55 18 55 6 0 10 -41 10 -110z m-1829 68 c1 -75 7 -107 21
-122 9 -8 18 -13 20 -10 3 3 3 -7 0 -22 l-5 -26 -13 31 c-9 22 -18 29 -29 25
-14 -6 -16 4 -13 75 2 44 6 81 11 81 4 0 7 -15 8 -32z m636 26 c-3 -3 -12 -4
-19 -1 -8 3 -5 6 6 6 11 1 17 -2 13 -5z m1248 -371 c-5 -34 -17 -54 -57 -95
l-50 -53 35 45 c62 80 67 103 69 304 l2 181 4 -170 c2 -93 0 -189 -3 -212z
m-1842 316 c-5 -19 -7 -19 -15 -5 -10 18 -2 39 12 31 4 -3 6 -15 3 -26z m-3
-33 c0 -3 -4 -8 -10 -11 -5 -3 -10 -1 -10 4 0 6 5 11 10 11 6 0 10 -2 10 -4z
m1058 -140 c3 -94 1 -117 -10 -113 -7 2 -12 13 -10 23 6 37 2 88 -7 97 -5 5
-8 -20 -7 -63 1 -59 -2 -74 -16 -81 -10 -5 -18 -6 -18 -2 0 4 -4 2 -9 -5 -5
-8 -23 -12 -47 -10 l-39 3 37 18 c66 33 91 96 64 162 -17 41 -56 63 -116 65
-65 3 -66 2 -99 -25 -43 -37 -51 -98 -21 -159 12 -25 26 -44 32 -43 6 1 13 -4
15 -10 6 -17 -12 -16 -30 1 -9 10 -18 11 -24 5 -7 -7 -16 -5 -27 6 -9 9 -20
14 -25 11 -13 -8 -21 46 -21 145 l0 88 33 3 c17 2 102 3 187 3 l155 0 3 -119z
m-742 90 c16 -17 19 -36 4 -36 -5 0 -10 5 -10 11 0 7 -8 18 -17 25 -12 9 -14
13 -5 14 7 0 20 -6 28 -14z m198 -2 c52 -8 57 -14 21 -30 -18 -9 -24 -9 -22 0
1 6 -10 9 -28 7 -36 -4 -44 -9 -26 -20 10 -7 9 -10 -3 -14 -11 -5 -16 0 -16
14 0 15 -5 19 -15 15 -8 -3 -15 -1 -15 5 0 6 -6 9 -13 6 -8 -3 -14 1 -14 9 0
16 51 19 131 8z m866 -5 c0 -11 -36 -17 -65 -11 -15 2 -22 8 -16 11 14 9 81 9
81 0z m-145 -9 c4 -6 8 -21 11 -35 3 -20 1 -23 -13 -18 -24 9 -54 43 -47 54 7
12 41 11 49 -1z m-611 -15 c-4 -8 -8 -15 -10 -15 -2 0 -4 7 -4 15 0 8 4 15 10
15 5 0 7 -7 4 -15z m293 5 c56 -20 72 -103 27 -139 -30 -23 -65 -26 -113 -10
-54 19 -69 92 -26 134 26 27 63 32 112 15z m213 6 c0 -3 -4 -8 -10 -11 -5 -3
-10 -1 -10 4 0 6 5 11 10 11 6 0 10 -2 10 -4z m-1170 -64 c-4 -15 -3 -38 2
-51 5 -14 6 -32 2 -40 -10 -26 -21 15 -23 89 -1 58 0 63 13 47 10 -12 12 -27
6 -45z m43 -32 c3 -11 1 -20 -4 -20 -5 0 -9 9 -9 20 0 11 2 20 4 20 2 0 6 -9
9 -20z m-13 -103 c0 -2 -9 -3 -20 -4 -12 -1 -20 4 -20 13 0 12 4 12 20 4 11
-6 20 -12 20 -13z m0 -37 c0 -5 -2 -10 -4 -10 -3 0 -8 5 -11 10 -3 6 -1 10 4
10 6 0 11 -4 11 -10z m1330 -10 c0 -5 -5 -10 -11 -10 -5 0 -7 5 -4 10 3 6 8
10 11 10 2 0 4 -4 4 -10z m-1330 -125 c0 -18 -5 -37 -11 -41 -8 -4 -9 0 -4 15
7 23 -11 91 -25 91 -4 0 -11 8 -14 18 -3 9 7 2 24 -16 21 -23 30 -42 30 -67z
m1347 30 c-2 -5 -10 -10 -17 -10 -7 0 -15 5 -17 10 -2 6 6 11 17 11 11 0 19
-5 17 -11z m-178 -22 c0 -11 -3 -13 -6 -5 -2 6 -9 12 -15 12 -6 0 -8 -7 -4
-15 6 -17 -31 -30 -69 -23 -13 3 -26 2 -27 -2 -2 -4 -17 -10 -35 -13 -26 -5
-31 -3 -26 8 3 10 -1 15 -13 16 -11 1 -3 5 16 10 19 5 49 8 65 8 17 -1 37 1
45 4 57 21 70 21 69 0z m588 -70 c-2 -16 -4 -5 -4 22 0 28 2 40 4 28 2 -13 2
-35 0 -50z m-1131 42 c18 -13 18 -14 -4 -8 -12 3 -25 9 -28 14 -8 14 10 11 32
-6z m74 -12 c-22 -9 -37 -10 -43 -4 -6 6 2 13 24 19 46 12 59 2 19 -15z m120
-8 c0 -28 -15 -33 -24 -8 -4 9 -1 20 6 25 18 11 18 11 18 -17z m110 3 c0 -4
-5 -8 -11 -8 -5 0 -7 -4 -4 -10 3 -5 -3 -10 -14 -10 -12 0 -21 5 -21 10 0 6
-6 10 -14 10 -8 0 -17 4 -20 8 -2 4 15 8 40 8 24 0 44 -4 44 -8z m37 6 c-3 -3
-12 -4 -19 -1 -8 3 -5 6 6 6 11 1 17 -2 13 -5z m-127 -54 c0 -5 -2 -10 -4 -10
-3 0 -8 5 -11 10 -3 6 -1 10 4 10 6 0 11 -4 11 -10z m-853 -37 c-3 -10 -5 -4
-5 12 0 17 2 24 5 18 2 -7 2 -21 0 -30z m1792 -16 c0 -27 -2 -29 -9 -12 -12
28 -12 57 0 50 6 -3 10 -21 9 -38z m-1804 -69 c-4 -13 -10 -39 -15 -58 -7 -30
-8 -31 -9 -9 -2 40 10 89 21 89 6 0 7 -10 3 -22z m1812 -10 c-3 -7 -5 -2 -5
12 0 14 2 19 5 13 2 -7 2 -19 0 -25z m33 -94 c0 -14 -4 -22 -10 -19 -5 3 -10
17 -10 31 0 14 4 22 10 19 6 -3 10 -17 10 -31z m-1878 -29 c-6 -34 -12 -32
-12 6 0 16 4 28 9 25 4 -3 6 -17 3 -31z m298 22 c0 -8 -7 -14 -15 -14 -16 0
-19 9 -8 20 11 11 23 8 23 -6z m65 -17 c14 -6 16 -9 5 -10 -8 -2 -1 -5 15 -9
21 -5 30 -12 28 -25 0 -11 4 -15 13 -12 9 3 14 -2 14 -14 0 -11 7 -20 15 -20
16 0 20 -16 6 -24 -5 -3 -11 1 -15 9 -3 8 -17 15 -31 15 -14 0 -33 9 -42 19
-9 11 -21 17 -27 15 -15 -6 -37 32 -30 51 7 17 19 18 49 5z m1527 -70 c-5 -51
-7 -48 -16 14 -5 39 -3 46 7 38 8 -7 11 -26 9 -52z m-369 37 c3 -8 -1 -14 -9
-14 -8 0 -14 4 -14 9 0 5 -4 6 -10 3 -5 -3 -10 -1 -10 4 0 16 37 13 43 -2z
m-69 -22 c-11 -8 -14 -15 -6 -15 17 0 15 -11 -8 -40 -19 -24 -19 -25 -15 -2 2
12 7 27 11 34 5 8 1 9 -12 5 -14 -5 -12 -2 6 13 14 11 29 20 34 20 6 0 1 -7
-10 -15z m-1464 -27 c0 -25 -3 -29 -10 -18 -13 20 -13 50 0 50 6 0 10 -15 10
-32z m280 -23 c0 -8 8 -16 18 -16 36 -3 41 -5 65 -26 26 -22 45 -20 25 4 -22
27 0 23 27 -5 20 -22 35 -28 56 -26 21 3 29 -2 34 -17 5 -16 10 -18 21 -8 11
9 14 7 14 -9 0 -11 8 -23 18 -26 20 -7 48 -46 32 -46 -6 0 -22 12 -35 26 -13
14 -36 27 -51 28 -15 2 -33 12 -41 22 -10 13 -16 15 -21 7 -5 -8 -16 -7 -42 4
-19 9 -40 17 -47 19 -15 3 -75 44 -85 59 -11 14 -10 25 2 25 6 0 10 -7 10 -15z
m1280 -46 c0 -11 -5 -17 -10 -14 -6 4 -23 -1 -38 -11 -42 -29 -73 -44 -88 -44
-8 0 -14 -3 -14 -8 0 -4 -15 -13 -32 -21 -18 -7 -50 -26 -70 -42 -45 -36 -53
-37 -32 -4 9 14 25 25 35 25 13 0 19 7 19 21 0 16 4 19 21 14 18 -6 20 -4 14
14 -5 17 -2 21 17 23 13 1 30 2 38 4 8 1 19 2 24 3 5 1 3 7 -3 15 -9 11 -8 15
5 20 9 3 20 4 25 0 5 -3 9 -1 9 4 0 5 11 7 24 5 13 -3 27 0 30 6 4 6 0 11 -9
11 -9 0 -13 5 -10 10 10 16 45 -8 45 -31z m360 -26 c0 -68 -5 -66 -14 5 -4 33
-3 52 4 52 6 0 10 -24 10 -57z m-1938 -10 c-6 -65 -10 -70 -11 -15 0 28 3 52
7 52 4 0 6 -17 4 -37z m354 -47 c7 -6 24 -20 38 -30 28 -20 35 -42 11 -32 -9
3 -15 0 -15 -10 0 -8 -4 -12 -10 -9 -5 3 -10 1 -10 -4 0 -6 4 -11 9 -11 4 0 7
-20 6 -45 -1 -24 2 -42 6 -39 10 6 39 -6 39 -18 0 -5 -9 -6 -21 -3 -13 4 -27
0 -40 -11 -22 -19 -27 -43 -5 -25 22 18 27 -11 12 -70 -8 -29 -12 -59 -9 -66
8 -21 -6 -63 -21 -63 -10 0 -13 -18 -11 -79 2 -67 0 -78 -12 -74 -12 5 -14 1
-8 -15 4 -13 2 -22 -4 -22 -6 0 -11 7 -11 16 0 14 -3 14 -15 4 -10 -8 -12 -16
-6 -19 10 -7 31 -55 31 -72 0 -5 -9 -9 -20 -9 -11 0 -20 -3 -20 -7 0 -5 -3
-19 -7 -33 -3 -14 -3 -22 2 -18 14 13 30 -17 33 -62 1 -24 8 -48 15 -52 8 -5
3 -8 -12 -8 -22 0 -23 -2 -15 -37 5 -21 7 -60 6 -87 -2 -39 1 -47 13 -42 11 4
15 -1 15 -19 0 -14 -6 -25 -12 -26 -10 0 -10 -2 0 -6 6 -2 12 -11 12 -18 0 -7
-6 -15 -12 -18 -9 -3 -4 -11 12 -24 21 -18 22 -23 11 -37 -7 -9 -24 -16 -37
-16 -25 0 -64 35 -64 57 0 8 -4 11 -10 8 -5 -3 -10 1 -10 10 0 12 6 15 19 10
30 -9 34 10 11 54 -11 22 -20 49 -20 60 0 11 -4 23 -10 26 -15 9 -12 25 4 19
8 -3 17 0 22 7 4 8 3 10 -4 5 -7 -4 -12 0 -13 11 0 10 -2 25 -5 33 -16 55 -16
80 0 80 9 0 16 5 16 10 0 6 -5 10 -10 10 -12 0 -9 37 3 58 5 6 4 12 -2 12 -15
0 -23 38 -12 57 9 16 11 16 20 -7 l10 -25 0 26 c1 14 -3 29 -8 35 -14 15 -25
58 -12 50 13 -8 26 38 15 55 -16 27 -21 126 -10 212 6 47 11 57 27 57 11 0 20
7 21 18 2 31 -4 77 -12 87 -12 15 -20 75 -10 75 15 0 21 -18 8 -22 -7 -3 -2
-7 10 -10 15 -4 22 -2 22 8 0 8 5 14 10 14 6 0 10 7 10 16 0 14 -2 15 -17 3
-15 -13 -16 -11 -11 13 3 17 1 26 -6 25 -6 -1 -12 10 -14 26 -2 15 -1 27 2 27
13 0 46 -36 46 -49 0 -12 3 -12 12 -3 9 9 9 18 0 37 -7 14 -12 30 -12 35 0 11
29 1 46 -14z m1604 -47 c0 -24 -4 -38 -10 -34 -5 3 -10 22 -10 41 0 19 5 34
10 34 6 0 10 -18 10 -41z m-344 -35 c0 -21 -5 -48 -11 -59 -7 -11 -16 -35 -20
-53 -6 -28 -2 -37 24 -64 27 -28 31 -38 30 -83 -1 -27 -7 -53 -13 -57 -6 -5
-2 -8 11 -8 20 0 22 -4 17 -30 -4 -17 -1 -36 5 -44 11 -13 15 -30 25 -118 2
-15 -2 -29 -8 -32 -6 -2 -3 -5 6 -5 12 -1 16 -10 16 -31 -1 -17 -4 -33 -8 -35
-5 -3 -4 -22 0 -42 6 -26 5 -40 -3 -45 -9 -6 -9 -8 1 -8 7 0 10 -5 7 -10 -4
-6 -1 -17 5 -25 10 -12 10 -18 0 -30 -6 -8 -9 -23 -5 -36 5 -16 4 -19 -5 -14
-10 6 -11 0 -5 -26 12 -56 7 -83 -21 -105 -22 -18 -24 -24 -15 -43 14 -25 27
-27 35 -6 3 8 1 15 -4 15 -18 0 -10 18 9 23 26 7 31 0 21 -28 -6 -15 -4 -39 5
-69 l14 -46 -27 -1 c-15 0 -40 -2 -57 -5 -48 -6 -80 12 -83 46 -3 34 17 41 25
10 3 -11 10 -17 15 -14 5 3 7 13 4 21 -4 10 -2 13 8 10 16 -6 12 16 -6 39 -4
6 -7 45 -6 85 1 41 -1 95 -5 122 -6 30 -5 47 2 47 6 0 8 -7 5 -15 -5 -11 -2
-13 11 -9 11 5 16 2 15 -7 -4 -24 0 -39 8 -39 13 0 8 31 -12 68 -16 31 -16 36
-2 57 12 19 13 30 6 51 -6 15 -8 35 -5 45 7 21 30 25 41 8 4 -8 9 -7 15 2 4 7
6 16 4 19 -6 10 -75 -1 -75 -11 0 -6 -6 -4 -14 3 -8 7 -10 15 -6 18 11 8 21
70 10 70 -6 0 -10 -6 -10 -14 0 -8 -4 -17 -9 -21 -10 -6 -9 9 8 63 10 34 4 40
-19 20 -12 -11 -12 -10 -2 3 8 11 9 25 2 48 -7 26 -6 32 4 28 9 -4 12 2 8 19
-2 13 -9 24 -14 24 -5 0 -6 -5 -2 -12 4 -6 3 -8 -3 -5 -6 4 -10 31 -8 61 2 43
-1 53 -12 49 -11 -4 -11 0 -4 21 7 16 7 27 1 31 -6 4 -10 24 -10 46 0 21 -4
39 -10 39 -5 0 -10 -5 -10 -11 0 -5 -4 -7 -10 -4 -5 3 -23 -1 -39 -10 -26 -13
-30 -13 -25 -1 3 8 12 17 20 20 9 3 12 10 9 16 -3 5 -1 10 5 10 6 0 18 16 26
35 8 19 20 35 27 35 8 0 7 -4 -3 -10 -8 -5 -10 -10 -4 -10 6 0 24 11 39 24 16
14 33 22 39 19 5 -4 7 1 3 11 -5 12 -3 16 5 13 7 -2 13 -21 14 -43z m-1626
-14 c0 -27 -4 -50 -10 -50 -5 0 -10 23 -10 50 0 28 5 50 10 50 6 0 10 -22 10
-50z m-21 -161 c-6 -41 -15 -94 -19 -119 l-7 -45 -2 57 c0 31 4 60 9 63 6 3
10 30 10 59 0 47 7 72 17 62 2 -1 -2 -36 -8 -77z m2011 10 c0 -26 -4 -51 -10
-54 -6 -4 -10 13 -10 44 0 27 -3 58 -7 68 -6 16 -5 16 10 4 12 -9 17 -29 17
-62z m-1560 7 c0 -5 -7 -3 -15 4 -8 7 -12 17 -9 22 7 10 24 -9 24 -26z m1082
-38 c-7 -7 -12 -8 -12 -2 0 6 3 14 7 17 3 4 9 5 12 2 2 -3 -1 -11 -7 -17z
m-1075 -90 c-3 -7 -5 -2 -5 12 0 14 2 19 5 13 2 -7 2 -19 0 -25z m1563 -18 c0
-16 -2 -30 -4 -30 -2 0 -6 14 -8 30 -3 17 -1 30 4 30 4 0 8 -13 8 -30z m-1006
-16 c5 -12 2 -15 -10 -10 -8 3 -18 6 -20 6 -3 0 -2 5 1 10 9 15 22 12 29 -6z
m-38 -81 c-11 -29 -17 -6 -9 33 7 36 8 37 11 11 2 -16 1 -36 -2 -44z m-1006
27 c0 -11 -4 -20 -10 -20 -5 0 -10 9 -10 20 0 11 5 20 10 20 6 0 10 -9 10 -20z
m1069 -77 c0 -24 -3 -43 -9 -43 -6 0 -10 30 -9 73 1 54 3 65 9 42 4 -16 8 -49
9 -72z m1001 -35 c0 -50 -2 -89 -4 -87 -9 11 -15 179 -6 179 6 0 10 -37 10
-92z m-1083 -10 c-2 -13 -4 -3 -4 22 0 25 2 35 4 23 2 -13 2 -33 0 -45z m-714
-3 c-7 -21 -13 -19 -13 6 0 11 4 18 10 14 5 -3 7 -12 3 -20z m-290 -364 c-1
-1 -5 -1 -10 2 -4 3 -6 90 -3 194 l4 188 6 -190 c3 -104 4 -192 3 -194z m997
302 c0 -24 -3 -33 -9 -25 -7 12 -4 62 5 62 2 0 4 -17 4 -37z m-572 2 c1 -13
-2 -26 -6 -29 -6 -3 -8 36 -3 52 3 8 7 -2 9 -23z m682 -32 c0 -23 -4 -33 -9
-27 -9 8 -4 64 5 64 2 0 4 -17 4 -37z m-833 5 c-3 -8 -6 -5 -6 6 -1 11 2 17 5
13 3 -3 4 -12 1 -19z m700 -70 c-2 -13 -4 -5 -4 17 -1 22 1 32 4 23 2 -10 2
-28 0 -40z m-576 -5 c-12 -20 -14 -14 -5 12 4 9 9 14 11 11 3 -2 0 -13 -6 -23z
m723 -21 c4 -29 3 -41 -4 -37 -5 3 -10 25 -10 47 0 51 5 47 14 -10z m986 -53
c0 -56 -4 -89 -10 -87 -5 2 -10 6 -10 11 0 4 0 43 0 87 0 47 4 80 10 80 6 0
10 -37 10 -91z m-1530 21 c0 -5 -2 -10 -4 -10 -3 0 -8 5 -11 10 -3 6 -1 10 4
10 6 0 11 -4 11 -10z m390 -26 c0 -13 -4 -24 -10 -24 -5 0 -10 14 -10 31 0 17
4 28 10 24 6 -3 10 -17 10 -31z m-503 -26 c-3 -7 -5 -2 -5 12 0 14 2 19 5 13
2 -7 2 -19 0 -25z m689 -102 c17 -92 18 -128 5 -107 -5 8 -12 46 -16 85 -4 39
-12 78 -18 87 -6 10 -7 27 -2 45 l9 29 3 -30 c2 -16 11 -65 19 -109z m666 102
c-7 -7 -12 -8 -12 -2 0 6 3 14 7 17 3 4 9 5 12 2 2 -3 -1 -11 -7 -17z m-876
-85 c-11 -29 -17 -6 -9 33 7 36 8 37 11 11 2 -16 1 -36 -2 -44z m894 43 c0 -3
-4 -8 -10 -11 -5 -3 -10 -1 -10 4 0 6 5 11 10 11 6 0 10 -2 10 -4z m-910 -107
c0 -22 -4 -38 -8 -35 -8 5 -4 76 4 76 2 0 4 -18 4 -41z m-496 -13 c4 -32 2
-35 -10 -25 -14 12 -19 51 -7 62 9 10 12 5 17 -37z m-419 -154 c-11 -11 -12 6
-6 93 l6 90 3 -89 c2 -49 0 -91 -3 -94z m2057 -221 c-5 -3 -12 -13 -16 -21 -3
-8 -4 -4 -1 10 3 14 8 108 12 210 l8 185 3 -189 c1 -104 -1 -192 -6 -195z
m-422 322 c-10 -16 -11 -15 -7 5 4 16 0 22 -11 22 -15 0 -15 2 -2 10 20 13 35
-14 20 -37z m-457 -122 c-7 -10 -12 8 -17 59 l-6 55 13 -55 c7 -30 11 -57 10
-59z m-285 -25 c-13 -16 -14 -4 -9 64 l5 65 6 -60 c3 -33 2 -64 -2 -69z m747
102 c-19 -11 -30 -5 -21 11 4 6 14 7 22 4 15 -5 14 -7 -1 -15z m-85 -28 c6
-11 7 -20 2 -20 -6 0 -12 9 -15 20 -3 11 -3 20 -1 20 2 0 8 -9 14 -20z m-1124
-12 c4 -13 11 -26 16 -29 6 -4 6 -9 -2 -14 -7 -4 -13 1 -17 14 -3 11 -9 19
-13 16 -10 -6 -21 21 -13 29 12 12 22 6 29 -16z m1141 -44 c2 -13 1 -15 -4 -4
-3 8 -11 19 -17 23 -7 6 -6 7 4 4 8 -2 16 -12 17 -23z m-1267 -18 c0 -3 -4 -8
-10 -11 -5 -3 -10 -1 -10 4 0 6 5 11 10 11 6 0 10 -2 10 -4z m120 -10 c0 -11
-19 -15 -25 -6 -3 5 1 10 9 10 9 0 16 -2 16 -4z m460 -61 c0 -8 -4 -15 -10
-15 -5 0 -7 7 -4 15 4 8 8 15 10 15 2 0 4 -7 4 -15z m329 -32 c1 -7 -3 -13 -9
-13 -5 0 -10 15 -9 33 0 27 2 29 9 12 5 -11 9 -26 9 -32z m-767 -1 c50 -25 98
-90 98 -134 1 -44 -12 -93 -28 -105 -9 -8 -16 -29 -16 -53 -1 -22 -4 -40 -8
-40 -4 0 -5 -6 -2 -14 3 -8 -3 -19 -15 -25 -24 -13 -42 -14 -22 -2 12 8 12 12
3 24 -7 8 -11 19 -10 23 2 5 -1 11 -7 14 -5 3 -11 -4 -13 -16 -2 -12 -14 -27
-28 -34 -24 -14 -32 -30 -14 -30 6 0 10 5 10 10 0 6 4 10 9 10 4 0 6 -12 3
-26 -3 -18 -7 -22 -13 -13 -5 9 -10 5 -14 -14 -4 -15 -11 -27 -16 -27 -15 0
-10 -17 15 -54 17 -26 26 -32 35 -23 8 8 11 5 11 -11 0 -16 -6 -22 -23 -22
-13 0 -27 -3 -31 -7 -4 -4 -25 -9 -47 -10 -38 -3 -73 12 -107 44 -7 7 -16 13
-20 13 -4 0 -17 15 -29 33 -24 35 -30 67 -12 67 6 0 8 -9 4 -20 -7 -23 4 -26
24 -7 11 10 13 8 9 -8 -3 -11 2 -27 10 -34 13 -12 14 -10 10 22 -2 22 0 37 7
38 5 0 4 3 -3 6 -10 4 -9 10 5 26 l18 20 -29 -19 -29 -19 6 33 c4 17 3 32 -1
32 -15 0 -32 -24 -32 -44 0 -34 -14 -7 -17 32 -3 56 -12 82 -27 82 -21 0 -41
-179 -24 -227 4 -13 3 -23 -2 -23 -17 0 -27 64 -25 160 2 110 10 151 34 177
10 10 16 24 13 31 -2 7 3 28 12 46 9 19 16 38 16 43 0 21 72 77 119 93 61 20
126 14 193 -18z m1393 19 c43 -26 77 -63 103 -111 24 -46 28 -75 11 -86 -6 -3
-8 -16 -4 -28 12 -41 13 -71 5 -101 -5 -16 -14 -56 -20 -87 -9 -45 -15 -58
-30 -58 -13 0 -17 -5 -13 -18 6 -24 -39 -77 -83 -98 -38 -18 -104 -12 -104 9
0 7 10 21 22 32 16 13 19 20 9 23 -14 5 -62 -48 -54 -60 2 -5 -3 -8 -12 -8
-23 0 -8 48 24 76 22 20 24 25 14 43 -7 11 -9 23 -4 26 5 3 7 15 3 27 l-5 21
-19 -22 -18 -23 7 33 c5 27 4 31 -10 26 -19 -7 -20 -2 -7 28 5 13 3 26 -8 38
-19 21 -32 22 -32 2 0 -8 -6 -15 -14 -15 -15 0 -19 10 -31 67 l-6 32 -25 -26
c-16 -17 -24 -38 -25 -62 0 -31 -2 -33 -9 -14 -5 12 -6 34 -3 50 3 15 6 35 7
45 1 9 8 24 16 32 7 9 10 19 7 23 -4 3 -1 15 5 27 7 11 11 28 10 36 -4 28 60
91 118 115 67 29 134 32 175 6z m-986 -75 c-9 -8 -10 -7 -5 7 3 10 7 26 7 35
1 9 4 6 6 -7 3 -13 -1 -28 -8 -35z m367 -14 c-12 -11 -18 7 -10 30 l8 23 4
-23 c2 -13 1 -26 -2 -30z m-366 -17 c0 -8 -4 -15 -10 -15 -5 0 -10 7 -10 15 0
8 5 15 10 15 6 0 10 -7 10 -15z m390 -23 c0 -9 7 -35 15 -57 19 -55 19 -71 -1
-51 -8 9 -13 20 -10 24 3 5 -2 21 -10 36 -16 32 -19 80 -4 71 6 -3 10 -14 10
-23z m-418 -81 c-7 -7 -11 -19 -8 -26 3 -8 -2 -16 -10 -19 -8 -3 -14 -17 -14
-31 0 -14 -4 -25 -10 -25 -13 0 -14 -7 15 78 14 41 26 81 26 90 1 10 4 1 8
-18 4 -23 2 -40 -7 -49z m1215 -3 c-3 -8 -6 -5 -6 6 -1 11 2 17 5 13 3 -3 4
-12 1 -19z m-1473 4 c8 -13 17 -90 18 -155 1 -65 -39 -206 -68 -238 -8 -8 -14
-21 -14 -27 0 -6 -15 -23 -34 -38 -37 -30 -81 -43 -73 -22 2 7 9 12 15 11 6
-2 20 9 31 23 12 15 25 23 32 18 9 -5 10 0 6 18 -5 18 -2 28 8 32 8 3 15 13
15 21 0 9 5 13 10 10 6 -3 10 -3 10 2 0 4 4 35 10 68 5 33 11 76 13 95 2 20 7
41 11 48 9 15 -2 35 -15 27 -5 -4 -9 -1 -9 4 0 6 4 11 8 11 4 0 7 23 6 50 -1
45 7 63 20 42z m1495 -89 l-2 -78 -8 65 c-5 36 -7 71 -4 78 10 28 15 7 14 -65z
m-779 -23 c0 -33 -4 -60 -10 -60 -11 0 -13 62 -4 98 10 36 14 26 14 -38z
m-1280 -42 c0 -37 -4 -58 -9 -50 -7 11 -7 38 -2 100 1 6 3 12 6 12 3 0 5 -28
5 -62z m2002 25 c6 -68 5 -153 -1 -153 -5 0 -11 30 -14 68 -2 37 -8 75 -12 85
-5 12 -2 17 9 17 9 0 17 -8 18 -17z m-379 -10 c-7 -2 -13 -11 -13 -18 0 -7 -7
-15 -15 -19 -11 -4 -15 1 -15 17 0 18 6 23 28 24 15 1 21 -1 15 -4z m-850 -44
c-8 -29 -13 -23 -13 14 0 22 3 28 9 18 5 -7 6 -22 4 -32z m737 16 c0 -8 -4
-15 -10 -15 -5 0 -10 7 -10 15 0 8 5 15 10 15 6 0 10 -7 10 -15z m110 -35 c-8
-5 -17 -7 -19 -4 -3 3 1 9 9 14 8 5 17 7 19 4 3 -3 -1 -9 -9 -14z m-97 -37 c3
-27 9 -59 13 -73 6 -22 5 -23 -8 -12 -9 7 -18 29 -22 50 -3 20 -9 47 -12 60
-5 16 -2 22 9 22 10 0 16 -15 20 -47z m565 -48 c4 -5 4 -71 1 -145 l-5 -135
-2 111 c-1 61 -4 138 -6 170 -2 32 -2 48 1 34 3 -14 8 -29 11 -35z m-785 -22
c4 -19 2 -33 -3 -33 -6 0 -10 15 -10 34 0 19 -5 36 -12 38 -7 3 -9 11 -4 24 8
18 9 17 16 -6 4 -14 10 -40 13 -57z m350 48 c-6 -22 -33 -37 -33 -18 0 14 20
37 31 37 4 0 5 -9 2 -19z m-1223 -1 c0 -5 -4 -10 -10 -10 -5 0 -10 5 -10 10 0
6 5 10 10 10 6 0 10 -4 10 -10z m340 6 c0 -3 -4 -8 -10 -11 -5 -3 -10 -1 -10
4 0 6 5 11 10 11 6 0 10 -2 10 -4z m-324 -41 c-3 -9 -11 -13 -16 -10 -8 5 -7
11 1 21 14 18 24 11 15 -11z m1474 -6 c0 -11 -4 -18 -10 -14 -5 3 -7 12 -3 20
7 21 13 19 13 -6z m-1174 -26 c-11 -11 -19 6 -11 24 8 17 8 17 12 0 3 -10 2
-21 -1 -24z m1241 -5 c-3 -7 -5 -2 -5 12 0 14 2 19 5 13 2 -7 2 -19 0 -25z
m-1248 -65 c1 -7 -3 -13 -9 -13 -5 0 -10 17 -9 38 1 33 2 34 9 12 4 -14 8 -31
9 -37z m873 -21 c42 -49 37 -82 -7 -44 -21 18 -71 107 -55 97 6 -3 10 0 10 7
0 7 6 4 12 -7 6 -11 24 -35 40 -53z m-296 31 c-10 -10 -19 5 -10 18 6 11 8 11
12 0 2 -7 1 -15 -2 -18z m-1340 -85 c-18 -53 -20 -28 -3 44 9 41 13 47 15 26
2 -15 -4 -46 -12 -70z m201 -9 c29 -38 73 -55 93 -35 8 8 13 7 18 -1 9 -15 78
-10 75 5 -4 15 23 16 32 2 18 -30 -140 -53 -188 -29 -34 18 -76 62 -77 81 0 9
-5 18 -12 20 -7 3 -8 9 -3 18 6 10 11 9 21 -6 7 -10 25 -35 41 -55z m1173 28
c0 -5 -4 -5 -10 -2 -5 3 -10 14 -10 23 0 15 2 15 10 2 5 -8 10 -19 10 -23z
m593 1 c-3 -16 -9 -28 -13 -28 -5 0 -27 -16 -50 -35 -30 -25 -52 -35 -76 -35
-19 0 -34 5 -34 11 0 6 -6 9 -14 6 -8 -3 -17 0 -20 8 -3 10 6 13 40 13 35 -1
42 -4 33 -15 -13 -14 -9 -16 15 -7 9 3 13 10 10 15 -3 5 2 9 12 9 17 0 74 53
74 69 0 8 21 21 27 17 1 0 -1 -13 -4 -28z m-1653 12 c0 -5 -5 -10 -11 -10 -5
0 -7 5 -4 10 3 6 8 10 11 10 2 0 4 -4 4 -10z m427 -37 c-3 -10 -5 -2 -5 17 0
19 2 27 5 18 2 -10 2 -26 0 -35z m658 -158 c1 -66 0 -78 -2 -27 -2 50 -8 92
-13 92 -6 0 -10 24 -9 53 0 46 2 49 11 27 6 -14 11 -79 13 -145z m327 151 c12
-18 9 -26 -10 -26 -17 0 -42 18 -42 30 0 10 45 7 52 -4z m-1742 -57 c-7 -11
-14 -18 -17 -15 -3 3 0 12 7 21 18 21 23 19 10 -6z m749 -26 c1 -7 -3 -13 -9
-13 -5 0 -10 15 -9 33 0 27 2 29 9 12 5 -11 9 -26 9 -32z m-759 -23 c0 -11 -4
-20 -9 -20 -6 0 -9 9 -8 20 1 11 5 20 9 20 4 0 8 -9 8 -20z m250 -10 c0 -5 -4
-10 -10 -10 -5 0 -10 5 -10 10 0 6 5 10 10 10 6 0 10 -4 10 -10z m-76 -15 c-4
-8 -10 -12 -15 -9 -11 6 -2 24 11 24 5 0 7 -7 4 -15z m563 -32 c-3 -10 -5 -2
-5 17 0 19 2 27 5 18 2 -10 2 -26 0 -35z m-760 -50 c-2 -16 -4 -3 -4 27 0 30
2 43 4 28 2 -16 2 -40 0 -55z m243 55 c0 -5 6 -6 13 -2 8 5 8 3 -2 -9 -15 -19
-26 -15 -34 12 -3 14 -1 18 9 14 8 -3 14 -9 14 -15z m1740 7 c-7 -8 -16 -15
-21 -15 -5 0 -22 -13 -39 -30 -17 -16 -38 -30 -47 -30 -9 0 -24 -7 -33 -15
-19 -17 -50 -10 -50 11 0 7 10 20 22 28 19 14 23 14 33 -1 11 -15 14 -14 36 6
13 13 36 28 52 33 15 6 27 14 27 19 0 5 7 9 16 9 14 0 14 -3 4 -15z m210 -10
c0 -14 5 -25 10 -25 6 0 10 -17 10 -37 l-1 -38 -19 55 c-23 64 -23 70 -10 70
6 0 10 -11 10 -25z m-1902 -61 c22 -10 32 -18 23 -21 -7 -3 -16 -1 -20 4 -3 5
-17 14 -31 20 -39 18 -14 15 28 -3z m469 -36 c-3 -7 -5 -2 -5 12 0 14 2 19 5
13 2 -7 2 -19 0 -25z m-382 3 c10 -17 -9 -20 -30 -5 -18 14 -18 14 2 14 12 0
24 -4 28 -9z m-180 -35 c42 -8 85 -31 81 -43 -3 -6 5 -15 17 -19 40 -12 69
-36 58 -47 -7 -7 -16 -6 -27 4 -10 8 -15 9 -11 2 4 -6 3 -14 -1 -17 -5 -3 -14
6 -20 19 -7 14 -17 25 -25 25 -7 0 -28 13 -47 30 -19 16 -41 29 -47 30 -7 0
-13 4 -13 9 0 5 -3 18 -6 28 -6 17 -6 17 7 1 8 -10 23 -19 34 -22z m587 -53
c-2 -7 -8 -13 -13 -13 -11 0 -12 54 -2 64 9 9 22 -34 15 -51z m-792 26 c0 -5
-7 -9 -15 -9 -15 0 -20 12 -9 23 8 8 24 -1 24 -14z m2005 1 c3 -5 2 -10 -4
-10 -5 0 -13 5 -16 10 -3 6 -2 10 4 10 5 0 13 -4 16 -10z m202 -42 c-3 -7 -5
-2 -5 12 0 14 2 19 5 13 2 -7 2 -19 0 -25z m-256 -17 c-6 -10 -27 -26 -48 -36
-21 -10 -46 -25 -56 -34 -18 -15 -18 -14 -6 11 6 15 15 27 18 26 11 -2 79 31
86 42 11 18 16 11 6 -9z m-1175 -59 c-11 -10 -14 3 -7 38 l6 35 3 -33 c2 -19
1 -36 -2 -40z m674 16 c0 -16 -4 -28 -10 -28 -5 0 -10 19 -10 43 0 31 3 38 10
27 5 -8 10 -27 10 -42z m785 22 c3 -5 -1 -10 -9 -10 -9 0 -16 5 -16 10 0 6 4
10 9 10 6 0 13 -4 16 -10z m-400 -19 c6 -10 -33 -36 -41 -28 -3 2 -2 12 2 21
7 18 29 22 39 7z m-1375 -31 c0 -15 -21 -23 -32 -12 -6 6 -17 8 -26 4 -11 -4
-10 0 4 15 14 14 24 17 37 11 9 -5 17 -13 17 -18z m-453 -32 c-2 -13 -4 -5 -4
17 -1 22 1 32 4 23 2 -10 2 -28 0 -40z m2233 17 c0 -19 -4 -35 -10 -35 -5 0
-10 16 -10 35 0 19 5 35 10 35 6 0 10 -16 10 -35z m-1478 -27 c-9 -9 -12 -7
-12 12 0 19 3 21 12 12 9 -9 9 -15 0 -24z m-360 11 c-13 -5 -21 -13 -18 -18 3
-5 -5 -4 -19 2 -21 10 -22 13 -7 19 9 4 28 7 42 7 l25 0 -23 -10z m1458 -10
c0 -6 -4 -7 -10 -4 -5 3 -10 11 -10 16 0 6 5 7 10 4 6 -3 10 -11 10 -16z m45
3 c-3 -3 -11 0 -18 7 -9 10 -8 11 6 5 10 -3 15 -9 12 -12z m-440 -50 c-11 -11
-22 11 -17 35 l5 28 8 -29 c5 -17 7 -32 4 -34z m-1125 28 c0 -12 -34 -37 -60
-43 -21 -5 -26 -3 -26 14 0 17 5 20 29 15 24 -5 27 -3 22 13 -5 16 -2 18 15
14 11 -3 20 -9 20 -13z m1603 -7 c-7 -2 -19 -2 -25 0 -7 3 -2 5 12 5 14 0 19
-2 13 -5z m-1214 -47 c-9 -8 -10 -7 -5 7 3 10 7 24 7 30 1 7 3 4 6 -7 3 -10
-1 -23 -8 -30z m754 -6 c3 -11 1 -18 -4 -14 -5 3 -9 12 -9 20 0 20 7 17 13 -6z
m773 -58 c33 -35 34 -36 34 -124 0 -55 -4 -88 -10 -88 -7 0 -9 19 -4 56 8 75
-1 116 -36 153 -20 20 -30 40 -29 58 2 26 2 26 6 4 3 -13 20 -40 39 -59z
m-2236 61 c-1 -14 -30 -47 -36 -41 -3 3 3 16 13 27 19 23 23 25 23 14z m696
-61 c-12 -11 -18 7 -10 30 l8 23 4 -23 c2 -13 1 -26 -2 -30z m-759 -26 c-9
-13 -18 -52 -20 -87 l-3 -64 -2 72 c-2 56 2 77 15 93 23 26 30 17 10 -14z
m1983 8 c0 -2 -11 -3 -24 -2 -14 1 -23 5 -20 9 4 7 44 0 44 -7z m-1243 -16
c-3 -8 -6 -5 -6 6 -1 11 2 17 5 13 3 -3 4 -12 1 -19z m820 -10 c-3 -7 -5 -2
-5 12 0 14 2 19 5 13 2 -7 2 -19 0 -25z m-1267 18 c0 -3 -4 -8 -10 -11 -5 -3
-10 -1 -10 4 0 6 5 11 10 11 6 0 10 -2 10 -4z m40 -26 c-29 -8 -48 -1 -30 10
7 4 22 5 34 2 20 -6 20 -6 -4 -12z m454 -62 c7 -38 -4 -138 -15 -138 -5 0 -6
31 -3 69 5 53 3 76 -10 101 -16 32 -16 33 3 16 10 -9 21 -31 25 -48z m748 5
c-16 -30 12 -236 37 -272 21 -29 30 -65 12 -46 -28 30 -51 90 -51 134 0 29 -5
51 -12 53 -14 5 -12 117 3 134 5 7 9 16 8 20 -3 18 4 28 8 12 2 -9 0 -25 -5
-35z m-1452 -1 c0 -6 69 -42 90 -47 14 -3 91 -15 134 -20 27 -3 53 -8 57 -11
5 -3 48 -5 97 -6 80 -1 89 -3 98 -22 5 -12 17 -20 27 -18 9 2 17 -3 17 -9 0
-7 -3 -10 -6 -7 -3 4 -14 -1 -23 -10 -77 -74 -110 -92 -167 -92 -24 0 -44 -4
-44 -10 0 -14 -33 -13 -48 2 -9 9 -12 9 -12 1 0 -20 -144 7 -187 35 -18 11
-20 17 -10 32 6 11 13 17 16 15 2 -3 10 0 18 6 7 7 27 9 45 5 42 -8 18 13 -49
43 -13 6 -23 15 -23 20 0 5 -16 16 -35 25 -19 9 -35 21 -35 27 0 6 8 6 21 -1
38 -21 43 -4 6 24 -20 16 -34 32 -31 37 6 10 44 -7 44 -19z m2150 -6 c0 -17
-45 -76 -61 -81 -27 -9 -15 -23 16 -17 20 3 25 0 25 -16 0 -11 -7 -28 -16 -36
-8 -9 -14 -21 -12 -27 3 -8 10 -6 20 5 20 20 28 20 28 2 0 -17 -23 -36 -47
-41 -10 -2 -19 -4 -20 -5 -5 -5 -19 -7 -93 -14 -121 -12 -188 -11 -207 5 -10
8 -29 14 -43 14 -28 0 -56 44 -36 57 15 11 46 10 46 -1 0 -5 -10 -7 -22 -5
-21 4 -21 4 -3 -4 23 -10 48 -4 39 9 -3 5 2 9 12 9 13 0 14 3 4 15 -7 8 -24
14 -39 13 -28 -2 -51 8 -51 21 0 4 6 8 13 9 6 1 41 3 77 6 152 12 256 32 310
60 47 24 60 29 60 22z m-2243 -158 c-2 -18 -4 -4 -4 32 0 36 2 50 4 33 2 -18
2 -48 0 -65z m1733 22 c0 -5 -7 -10 -15 -10 -8 0 -15 5 -15 10 0 6 7 10 15 10
8 0 15 -4 15 -10z m593 -35 c4 -8 2 -17 -3 -20 -6 -4 -10 3 -10 14 0 25 6 27
13 6z m-2242 -12 c13 -15 12 -15 -8 -4 -24 12 -29 21 -14 21 5 0 15 -7 22 -17z
m696 -24 c-2 -10 -9 -25 -15 -31 -7 -7 -12 -17 -12 -24 0 -6 -7 -17 -15 -24
-9 -7 -14 -19 -11 -26 3 -7 1 -16 -4 -19 -5 -3 -9 -13 -9 -23 -4 -74 -8 -113
-14 -118 -11 -11 -7 55 7 129 8 41 21 76 34 90 12 13 22 36 22 51 0 15 4 25
10 21 5 -3 8 -15 7 -26z m980 5 c-3 -3 -12 -4 -19 -1 -8 3 -5 6 6 6 11 1 17
-2 13 -5z m543 -19 c0 -8 -4 -15 -10 -15 -5 0 -7 7 -4 15 4 8 8 15 10 15 2 0
4 -7 4 -15z m-2256 -48 c3 -18 7 -74 10 -124 5 -71 3 -93 -7 -93 -10 0 -12 25
-9 106 3 69 1 109 -7 117 -13 13 -15 41 -1 32 5 -3 11 -20 14 -38z m2243 -33
c1 -19 -2 -34 -8 -34 -5 0 -9 19 -9 42 0 49 13 43 17 -8z m-2061 -4 c13 0 24
-4 24 -10 0 -5 -9 -10 -20 -10 -21 0 -27 -14 -11 -24 13 -8 41 4 41 18 0 8 25
10 83 8 68 -3 85 -7 98 -24 9 -12 28 -20 43 -20 20 0 25 -3 16 -12 -12 -12
-15 -13 -57 -15 -26 -1 -26 -3 -10 -15 9 -7 17 -21 17 -30 0 -11 9 -16 28 -17
l27 -1 -27 -10 c-16 -5 -28 -16 -28 -24 0 -8 -10 -14 -26 -14 -16 0 -24 -5
-21 -12 2 -7 16 -12 31 -11 14 1 24 -2 21 -8 -4 -5 8 -9 24 -9 37 0 41 -15 6
-24 -25 -6 -25 -6 -6 -28 16 -17 18 -25 9 -42 l-11 -20 -8 21 c-12 33 -29 38
-29 8 0 -22 -4 -25 -25 -21 -33 6 -40 -8 -11 -24 14 -7 36 -9 55 -5 17 4 31 3
31 -2 0 -16 -16 -28 -40 -31 -14 -2 -51 -15 -83 -31 -50 -24 -56 -30 -42 -41
12 -10 15 -10 15 4 0 11 9 16 28 16 26 0 70 -20 45 -20 -20 0 -46 -32 -33 -40
6 -4 12 -21 12 -38 1 -30 3 -32 39 -32 21 0 41 -5 44 -11 9 -14 -24 -81 -36
-74 -5 4 -9 -3 -9 -15 0 -12 5 -18 10 -15 6 3 10 -2 10 -11 0 -14 -3 -15 -12
-6 -23 23 -38 13 -38 -23 0 -25 -4 -35 -15 -35 -9 0 -21 -11 -27 -25 -6 -14
-15 -25 -20 -25 -10 0 -11 -37 0 -44 4 -2 14 10 21 27 18 40 41 68 52 61 5 -3
9 0 9 5 0 6 5 11 10 11 22 0 8 -56 -26 -106 -35 -50 -54 -61 -54 -29 0 7 -7
15 -15 19 -10 4 -15 -1 -15 -15 0 -15 -5 -18 -22 -16 -13 2 -18 2 -12 0 17 -6
23 -51 10 -79 -11 -24 -26 -32 -26 -14 0 6 -5 10 -11 10 -6 0 -8 -7 -5 -16 3
-8 2 -13 -3 -10 -4 3 -24 -4 -44 -14 -22 -12 -37 -16 -37 -9 0 7 -7 8 -17 4
-25 -11 -273 -15 -292 -5 -9 4 -28 13 -43 19 -16 6 -28 17 -28 24 0 20 28 73
45 87 8 7 15 18 15 24 0 11 23 29 72 53 15 8 25 20 22 27 -3 7 13 28 36 46 22
18 57 55 77 83 32 43 38 47 44 31 7 -17 8 -17 8 3 1 12 12 30 26 41 14 11 25
28 25 37 0 9 9 19 20 22 11 3 20 8 20 11 0 12 -34 42 -48 42 -11 0 -13 8 -7
38 3 20 12 46 20 57 10 16 10 25 1 37 -16 22 -13 123 4 113 5 -3 9 7 9 22 0
15 2 54 4 86 2 32 1 60 -3 62 -5 3 -8 26 -8 50 1 35 4 45 15 40 8 -3 26 -5 39
-5z m1894 -45 c0 -25 5 -45 10 -45 18 0 11 -18 -20 -53 -16 -19 -30 -37 -30
-40 0 -3 15 -7 33 -9 24 -2 32 -8 32 -23 0 -11 -10 -24 -22 -30 -30 -13 -29
-25 2 -25 14 0 25 -6 25 -13 0 -14 -54 -37 -88 -37 -11 0 -23 -4 -26 -8 -6
-10 85 -9 102 1 12 8 17 -13 12 -58 -3 -28 -9 -32 -65 -45 -128 -30 -151 -43
-97 -54 43 -9 84 -8 127 3 49 12 55 8 25 -24 l-24 -25 22 -16 c12 -8 22 -21
22 -27 1 -7 19 -24 41 -40 21 -15 47 -40 57 -55 28 -47 135 -161 170 -183 19
-12 29 -26 25 -32 -3 -7 -2 -9 2 -4 10 9 85 -69 85 -88 0 -8 -11 -26 -25 -41
-27 -29 -38 -31 -221 -39 -122 -5 -161 3 -208 46 -28 26 -28 27 -10 45 20 20
24 37 12 50 -5 4 -8 1 -8 -8 0 -8 -11 -20 -25 -26 -22 -10 -25 -9 -25 7 0 10
-7 21 -15 25 -8 3 -15 12 -15 21 0 36 -18 11 -27 -37 l-9 -53 -13 43 c-6 23
-16 42 -20 42 -17 0 -44 97 -30 106 5 3 9 1 9 -5 0 -16 40 -24 55 -11 11 9 11
14 -6 31 -10 10 -25 19 -31 19 -8 0 -6 5 4 11 16 9 16 12 1 44 -9 19 -22 34
-27 33 -24 -3 -67 15 -62 27 2 7 0 17 -6 23 -6 6 -7 15 -4 21 9 14 59 14 73 0
13 -13 33 -4 33 16 0 14 -62 39 -92 37 -20 -1 -22 6 -8 28 9 13 12 13 21 -2
12 -22 28 -22 54 -2 l20 15 -20 12 c-11 6 -35 10 -53 8 -35 -3 -62 12 -62 36
0 11 8 12 36 7 32 -6 36 -4 32 12 -2 11 -8 19 -15 19 -17 0 -29 15 -12 15 10
1 9 3 -3 11 -10 5 -15 16 -11 25 5 13 7 13 15 2 7 -10 11 -9 23 6 8 11 15 25
14 30 0 6 -3 5 -6 -1 -5 -14 -35 -2 -62 25 -10 10 -16 11 -19 3 -4 -13 -42 4
-42 19 0 9 46 7 108 -6 17 -3 22 0 22 16 0 15 -7 20 -29 20 -17 0 -33 5 -36
10 -4 6 -12 8 -18 4 -7 -3 -2 4 11 15 13 11 21 25 18 30 -4 5 10 15 29 22 46
17 44 24 -6 25 -22 0 -43 5 -47 11 -4 6 -18 13 -32 16 -16 3 -8 5 23 7 26 1
52 4 57 5 6 1 16 3 23 4 7 1 5 6 -6 12 -9 5 -22 7 -27 4 -6 -3 -10 -2 -10 3 0
6 -9 8 -20 5 -11 -3 -20 -3 -20 1 0 10 61 37 73 33 7 -2 26 0 42 5 17 4 55 11
85 13 30 3 69 9 85 14 17 5 33 10 38 10 4 1 7 -19 7 -44z m-505 -6 c5 -26 25
-178 25 -191 0 -5 -4 -8 -9 -8 -4 0 -11 39 -15 88 -3 48 -9 101 -12 117 -4 17
-4 27 0 24 4 -4 9 -17 11 -30z m-1118 15 c-3 -3 -12 -4 -19 -1 -8 3 -5 6 6 6
11 1 17 -2 13 -5z m1768 -302 c-18 -47 -23 60 -7 158 6 38 7 30 10 -49 1 -52
0 -101 -3 -109z m-1746 146 c-11 -22 -28 -38 -39 -38 -3 0 -6 11 -6 24 -2 24
9 32 44 35 10 1 10 -4 1 -21z m1261 18 c0 -2 -7 -9 -15 -16 -12 -10 -15 -10
-15 4 0 9 7 16 15 16 8 0 15 -2 15 -4z m-1094 -74 c-12 -12 -18 8 -10 35 l8
28 4 -28 c2 -16 1 -31 -2 -35z m-613 -39 c5 -62 3 -73 -10 -73 -11 0 -14 6 -9
23 3 12 6 46 6 76 0 74 6 62 13 -26z m1637 27 c4 -3 10 -23 13 -45 4 -28 3
-35 -3 -24 -6 9 -11 26 -13 38 -2 11 -6 24 -10 27 -4 4 -6 17 -6 28 1 20 1 20
6 1 3 -11 9 -22 13 -25z m-1044 -88 c-11 -10 -13 3 -7 48 l6 45 3 -44 c2 -23
1 -46 -2 -49z m986 58 c3 -16 1 -30 -4 -30 -4 0 -8 14 -8 30 0 17 2 30 4 30 2
0 6 -13 8 -30z m18 -133 c-14 -15 -20 8 -13 49 l7 39 7 -40 c4 -22 4 -44 -1
-48z m103 76 c-7 -2 -19 -2 -25 0 -7 3 -2 5 12 5 14 0 19 -2 13 -5z m-1248
-23 c3 -5 1 -10 -4 -10 -6 0 -11 5 -11 10 0 6 2 10 4 10 3 0 8 -4 11 -10z
m131 -48 c-11 -10 -15 4 -8 28 l7 25 3 -23 c2 -13 1 -26 -2 -30z m-575 -89
c-8 -15 -10 -10 -11 22 0 22 4 51 8 65 6 20 8 16 10 -22 2 -26 -2 -56 -7 -65z
m509 87 c0 -11 -2 -20 -4 -20 -2 0 -6 9 -9 20 -3 11 -1 20 4 20 5 0 9 -9 9
-20z m1164 -5 c3 -8 1 -15 -4 -15 -6 0 -10 7 -10 15 0 8 2 15 4 15 2 0 6 -7
10 -15z m-1110 -40 c3 -9 0 -15 -9 -15 -9 0 -12 6 -9 15 4 8 7 15 9 15 2 0 5
-7 9 -15z m1062 -89 c2 -69 2 -69 -4 -14 -4 31 -12 62 -18 68 -7 7 -9 21 -6
32 9 37 25 -9 28 -86z m-1076 4 c0 -27 -4 -50 -10 -50 -5 0 -10 23 -10 50 0
28 5 50 10 50 6 0 10 -22 10 -50z m1636 -10 c8 -19 22 -48 31 -63 25 -48 7
-42 -22 6 -14 25 -28 63 -31 84 -2 21 -1 31 2 23 3 -8 12 -31 20 -50z m-1765
30 c5 0 9 -4 9 -9 0 -12 -87 -24 -102 -15 -14 9 50 35 70 28 8 -2 18 -4 23 -4z
m-460 -90 c-17 -28 -31 -53 -31 -56 0 -4 -54 -59 -120 -123 -66 -64 -120 -113
-120 -107 0 5 51 60 113 122 63 61 119 125 126 143 8 17 17 31 22 31 5 0 9 6
9 13 0 15 21 39 28 32 2 -2 -10 -27 -27 -55z m1656 -92 c-2 -13 -4 -5 -4 17
-1 22 1 32 4 23 2 -10 2 -28 0 -40z m643 25 c21 -18 26 -33 11 -33 -5 0 -16
11 -25 25 -19 29 -14 32 14 8z m-460 -30 c0 -10 7 -14 20 -10 23 6 27 -8 5
-17 -8 -3 -12 -12 -9 -21 3 -8 1 -15 -5 -15 -7 0 -13 6 -15 13 -2 6 -8 26 -13
44 -9 26 -8 31 3 26 8 -3 14 -12 14 -20z m590 -103 c50 -49 90 -95 90 -102 0
-7 -10 -1 -21 14 -11 15 -57 61 -102 102 -45 42 -76 76 -69 76 7 0 53 -40 102
-90z m-2020 70 c0 -5 -4 -10 -10 -10 -5 0 -10 5 -10 10 0 6 5 10 10 10 6 0 10
-4 10 -10z m1237 -152 c-2 -29 -3 -6 -3 52 0 58 1 81 3 53 2 -29 2 -77 0 -105z
m253 111 c0 -5 -4 -9 -10 -9 -5 0 -10 7 -10 16 0 8 5 12 10 9 6 -3 10 -10 10
-16z m-1290 -54 c0 -30 -4 -55 -10 -55 -5 0 -10 25 -10 55 0 30 5 55 10 55 6
0 10 -25 10 -55z m-900 -115 c-16 -31 -23 -19 -9 16 6 16 13 24 16 17 2 -7 -1
-22 -7 -33z m868 -3 c-7 -8 -25 -20 -38 -27 -18 -9 -15 -4 10 18 34 29 56 36
28 9z m1962 13 c0 -5 -2 -10 -4 -10 -3 0 -8 5 -11 10 -3 6 -1 10 4 10 6 0 11
-4 11 -10z m20 -35 c0 -8 -4 -15 -10 -15 -5 0 -10 7 -10 15 0 8 5 15 10 15 6
0 10 -7 10 -15z m-2870 -20 c0 -8 -4 -15 -10 -15 -5 0 -10 7 -10 15 0 8 5 15
10 15 6 0 10 -7 10 -15z m2880 -60 l-8 -40 -1 50 c-1 29 3 45 8 40 5 -6 6 -28
1 -50z m-2081 42 c-2 -1 -15 -11 -29 -22 l-25 -20 19 23 c11 12 24 22 29 22 6
0 8 -1 6 -3z m1291 -12 c7 -8 9 -15 6 -15 -4 0 -14 7 -22 15 -9 8 -11 15 -6
15 5 0 15 -7 22 -15z m-2108 -92 c-5 -83 -9 -90 -11 -20 0 37 2 67 7 67 4 0 6
-21 4 -47z m760 17 c-2 -16 -7 -30 -11 -30 -4 0 -6 14 -3 30 2 17 7 30 11 30
4 0 6 -13 3 -30z m1388 4 c0 -8 -4 -12 -10 -9 -5 3 -10 13 -10 21 0 8 5 12 10
9 6 -3 10 -13 10 -21z m19 -74 c1 -13 0 -13 -9 0 -5 8 -9 24 -9 35 l0 20 9
-20 c5 -11 9 -27 9 -35z m-1989 30 c0 -5 -5 -10 -11 -10 -5 0 -7 5 -4 10 3 6
8 10 11 10 2 0 4 -4 4 -10z m488 -24 c-10 -7 -18 -18 -18 -23 0 -19 -95 -49
-105 -33 -3 6 -11 8 -16 4 -5 -3 -7 -9 -4 -13 6 -10 -31 -18 -97 -20 -28 -1
-48 2 -48 9 0 10 20 15 50 12 8 -1 24 3 35 9 23 11 195 67 210 68 6 0 2 -6 -7
-13z m2229 -18 c-3 -8 -6 -5 -6 6 -1 11 2 17 5 13 3 -3 4 -12 1 -19z m-572 -4
c22 -8 49 -17 60 -19 76 -18 140 -27 206 -29 42 -2 81 -6 87 -10 5 -3 13 2 17
12 6 16 7 16 17 -1 5 -10 8 -20 6 -22 -5 -5 -115 -8 -186 -5 -44 2 -52 5 -47
18 5 14 4 14 -12 -1 -12 -10 -27 -14 -42 -10 -17 4 -19 8 -9 14 9 6 9 9 1 9
-6 0 -14 -4 -17 -9 -10 -16 -45 -1 -39 16 5 13 3 13 -15 4 -16 -8 -22 -9 -22
-1 0 6 -5 8 -10 5 -11 -7 -70 15 -70 26 0 22 22 23 75 3z m-2203 -18 c19 -13
10 -36 -12 -33 -24 4 -41 18 -35 28 4 5 -1 9 -9 9 -9 0 -16 5 -16 10 0 12 47
3 72 -14z m2728 10 c0 -16 -37 -46 -57 -46 -19 0 -16 17 7 40 23 23 50 26 50
6z m-2130 -5 c0 -13 -31 -43 -38 -37 -3 3 3 15 13 26 20 22 25 24 25 11z
m1480 -12 c0 -5 -4 -9 -10 -9 -5 0 -10 7 -10 16 0 8 5 12 10 9 6 -3 10 -10 10
-16z m687 -35 c-12 -12 -25 -20 -29 -18 -4 3 1 15 12 26 11 12 20 27 20 32 0
6 4 5 9 -3 7 -10 3 -22 -12 -37z m-2863 11 c14 -14 20 -25 13 -25 -17 1 -47
25 -47 39 0 16 6 14 34 -14z m345 -1 c9 -9 -11 -17 -54 -24 -25 -4 -48 -3 -51
2 -3 5 -21 6 -39 2 -18 -3 -42 -1 -52 4 -17 10 -16 11 6 20 22 8 180 5 190 -4z
m296 -4 c-3 -5 -11 -10 -16 -10 -6 0 -7 5 -4 10 3 6 11 10 16 10 6 0 7 -4 4
-10z m-45 -20 c-8 -5 -19 -10 -25 -10 -5 0 -3 5 5 10 8 5 20 10 25 10 6 0 3
-5 -5 -10z m1657 4 c-3 -3 -12 -4 -19 -1 -8 3 -5 6 6 6 11 1 17 -2 13 -5z
m-2197 -14 c0 -5 -4 -10 -10 -10 -5 0 -10 5 -10 10 0 6 5 10 10 10 6 0 10 -4
10 -10z m2760 5 c0 -10 -74 -35 -104 -34 -23 0 -15 5 34 18 36 10 66 19 68 20
1 0 2 -1 2 -4z m-2267 -12 c-7 -2 -19 -2 -25 0 -7 3 -2 5 12 5 14 0 19 -2 13
-5z m1816 -9 c2 -2 -7 -4 -22 -4 -14 0 -29 5 -32 10 -6 10 42 4 54 -6z m-2229
-4 c12 -8 9 -10 -12 -10 -16 0 -28 5 -28 10 0 13 20 13 40 0z m328 -7 c-10 -2
-28 -2 -40 0 -13 2 -5 4 17 4 22 1 32 -1 23 -4z m1945 0 c-7 -2 -19 -2 -25 0
-7 3 -2 5 12 5 14 0 19 -2 13 -5z m-2080 -10 c-29 -2 -77 -2 -105 0 -29 2 -6
3 52 3 58 0 81 -1 53 -3z"/>
<path d="M4480 9200 c0 -5 7 -10 15 -10 8 0 15 -5 15 -11 0 -5 4 -8 10 -4 15
9 0 35 -21 35 -10 0 -19 -4 -19 -10z"/>
<path d="M4057 9183 c-12 -12 -7 -31 9 -37 14 -5 15 -4 5 8 -7 8 -10 20 -6 26
7 11 2 14 -8 3z"/>
<path d="M3272 8095 c0 -16 2 -22 5 -12 2 9 2 23 0 30 -3 6 -5 -1 -5 -18z"/>
<path d="M2616 8025 c-4 -12 -2 -13 13 -6 10 6 21 7 25 4 3 -3 6 -1 6 5 0 18
-37 15 -44 -3z"/>
<path d="M2966 8014 c-5 -14 -4 -15 9 -4 17 14 19 20 6 20 -5 0 -12 -7 -15
-16z"/>
<path d="M2915 8010 c-3 -5 -1 -10 4 -10 6 0 11 5 11 10 0 6 -2 10 -4 10 -3 0
-8 -4 -11 -10z"/>
<path d="M2550 7980 c0 -5 5 -10 10 -10 6 0 10 5 10 10 0 6 -4 10 -10 10 -5 0
-10 -4 -10 -10z"/>
<path d="M2995 7960 c3 -5 10 -10 16 -10 5 0 9 5 9 10 0 6 -7 10 -16 10 -8 0
-12 -4 -9 -10z"/>
<path d="M2465 7950 c-3 -6 1 -7 9 -4 18 7 21 14 7 14 -6 0 -13 -4 -16 -10z"/>
<path d="M2890 7939 c0 -5 5 -7 10 -4 6 3 10 8 10 11 0 2 -4 4 -10 4 -5 0 -10
-5 -10 -11z"/>
<path d="M5410 8060 c0 -5 5 -10 10 -10 6 0 10 5 10 10 0 6 -4 10 -10 10 -5 0
-10 -4 -10 -10z"/>
<path d="M1790 7969 c0 -5 5 -7 10 -4 6 3 10 8 10 11 0 2 -4 4 -10 4 -5 0 -10
-5 -10 -11z"/>
<path d="M1960 7964 c0 -8 5 -12 10 -9 6 4 8 11 5 16 -9 14 -15 11 -15 -7z"/>
<path d="M2040 7960 c0 -5 5 -10 11 -10 5 0 7 5 4 10 -3 6 -8 10 -11 10 -2 0
-4 -4 -4 -10z"/>
<path d="M1918 7923 c7 -3 16 -2 19 1 4 3 -2 6 -13 5 -11 0 -14 -3 -6 -6z"/>
<path d="M6755 8020 c4 -6 11 -8 16 -5 14 9 11 15 -7 15 -8 0 -12 -5 -9 -10z"/>
<path d="M6830 8002 c0 -9 6 -12 16 -8 9 3 31 6 50 6 19 0 34 5 34 10 0 6 -22
9 -50 8 -35 -2 -50 -7 -50 -16z"/>
<path d="M5900 7970 c-12 -8 -9 -10 13 -10 16 0 26 4 22 10 -8 12 -16 12 -35
0z"/>
<path d="M6040 7940 c0 -5 5 -10 11 -10 5 0 7 5 4 10 -3 6 -8 10 -11 10 -2 0
-4 -4 -4 -10z"/>
<path d="M5965 7920 c-3 -5 -1 -10 4 -10 6 0 11 5 11 10 0 6 -2 10 -4 10 -3 0
-8 -4 -11 -10z"/>
<path d="M5907 7903 c-4 -3 -7 -11 -7 -17 0 -6 5 -5 12 2 6 6 9 14 7 17 -3 3
-9 2 -12 -2z"/>
<path d="M3617 7580 c3 -11 11 -20 19 -20 7 0 12 9 11 20 -1 12 -8 20 -18 20
-12 0 -16 -6 -12 -20z"/>
<path d="M4386 7578 c3 -5 10 -6 15 -3 13 9 11 12 -6 12 -8 0 -12 -4 -9 -9z"/>
<path d="M4969 7643 c-17 -4 -32 -37 -21 -47 14 -15 30 -5 24 16 -3 14 -2 19
6 14 7 -4 12 -1 12 8 0 9 -1 15 -2 15 -2 -1 -10 -3 -19 -6z"/>
<path d="M3620 7461 c-51 -7 -56 -17 -45 -87 l6 -44 55 0 c31 0 65 5 76 11 18
10 20 17 14 62 -4 29 -13 55 -19 59 -13 8 -18 8 -87 -1z"/>
<path d="M4956 7041 c-4 -7 -5 -15 -2 -18 9 -9 19 4 14 18 -4 11 -6 11 -12 0z"/>
<path d="M4925 6990 c-3 -5 1 -10 9 -10 9 0 16 5 16 10 0 6 -4 10 -9 10 -6 0
-13 -4 -16 -10z"/>
<path d="M4140 6216 c0 -8 5 -18 10 -21 6 -3 10 1 10 9 0 8 -4 18 -10 21 -5 3
-10 -1 -10 -9z"/>
<path d="M4142 6160 c0 -14 2 -19 5 -12 2 6 2 18 0 25 -3 6 -5 1 -5 -13z"/>
<path d="M4240 6190 c0 -5 4 -10 9 -10 6 0 13 5 16 10 3 6 -1 10 -9 10 -9 0
-16 -4 -16 -10z"/>
<path d="M4335 6170 c-3 -5 1 -10 9 -10 9 0 16 5 16 10 0 6 -4 10 -9 10 -6 0
-13 -4 -16 -10z"/>
<path d="M4280 6161 c0 -12 28 -22 35 -12 3 5 -2 12 -11 15 -21 8 -24 8 -24
-3z"/>
<path d="M3680 5160 c0 -5 5 -10 11 -10 5 0 7 5 4 10 -3 6 -8 10 -11 10 -2 0
-4 -4 -4 -10z"/>
<path d="M3656 5055 c4 -8 10 -15 15 -15 4 0 6 7 3 15 -4 8 -10 15 -15 15 -4
0 -6 -7 -3 -15z"/>
<path d="M3573 5002 c0 -12 5 -22 9 -22 11 0 10 12 -2 30 -7 12 -9 10 -7 -8z"/>
<path d="M3605 4970 c3 -5 8 -10 11 -10 2 0 4 5 4 10 0 6 -5 10 -11 10 -5 0
-7 -4 -4 -10z"/>
<path d="M3640 4958 c0 -9 5 -20 10 -23 13 -8 13 5 0 25 -8 13 -10 13 -10 -2z"/>
<path d="M4846 5211 c-11 -12 -16 -24 -12 -28 9 -9 39 22 34 37 -2 7 -10 4
-22 -9z"/>
<path d="M5003 4615 c-3 -9 -3 -18 -1 -21 3 -3 8 4 11 16 6 23 -1 27 -10 5z"/>
<path d="M4991 4516 c-8 -10 -9 -16 -1 -21 6 -3 8 -11 5 -16 -4 -5 -2 -9 4 -9
11 0 31 32 31 49 0 16 -26 13 -39 -3z"/>
<path d="M3523 3633 c-7 -3 -13 -11 -13 -19 0 -9 4 -13 9 -10 5 4 11 0 14 -6
2 -7 7 -10 11 -7 11 10 -8 46 -21 42z"/>
<path d="M3570 3600 c0 -23 35 -66 42 -53 3 4 1 23 -4 41 -9 35 -38 44 -38 12z"/>
<path d="M3580 3521 c0 -5 5 -13 10 -16 6 -3 10 -2 10 4 0 5 -4 13 -10 16 -5
3 -10 2 -10 -4z"/>
<path d="M5155 3701 c-3 -12 -17 -24 -31 -27 -13 -3 -24 -9 -24 -13 0 -11 -43
-11 -57 1 -9 7 -13 7 -13 -1 0 -6 -6 -11 -13 -11 -10 0 -14 -15 -15 -47 0 -48
0 -48 14 -20 14 26 34 37 34 18 0 -5 9 -11 21 -14 17 -5 24 3 39 39 11 24 24
44 31 44 6 0 8 -7 5 -16 -3 -8 -2 -12 4 -9 6 3 10 -1 10 -9 0 -9 3 -16 8 -16
8 0 8 88 -1 96 -3 3 -8 -4 -12 -15z"/>
<path d="M5050 3555 c0 -14 -5 -25 -12 -25 -6 0 -8 -3 -5 -6 4 -4 13 -1 22 6
17 14 21 50 5 50 -5 0 -10 -11 -10 -25z"/>
<path d="M3387 2458 c-7 -4 2 -8 20 -8 17 0 33 -5 35 -10 3 -9 41 -13 91 -8
20 2 21 5 5 22 -14 13 -132 16 -151 4z"/>
<path d="M3572 2452 c13 -15 54 -12 51 3 -2 6 -16 10 -32 10 -23 0 -27 -3 -19
-13z"/>
<path d="M3648 2453 c6 -2 18 -2 25 0 6 3 1 5 -13 5 -14 0 -19 -2 -12 -5z"/>
<path d="M5032 2519 c3 -8 8 -13 11 -11 9 3 7 11 -5 18 -6 4 -8 0 -6 -7z"/>
<path d="M5054 2458 c-8 -13 14 -17 65 -11 73 8 74 23 1 20 -34 -1 -64 -5 -66
-9z"/>
<path d="M3365 1880 c-4 -6 -15 -8 -26 -5 -11 4 -19 2 -19 -4 0 -6 12 -12 28
-13 15 0 39 -2 55 -3 29 -2 34 4 15 23 -15 15 -45 16 -53 2z"/>
<path d="M3470 1571 c0 -5 5 -13 10 -16 6 -3 10 -2 10 4 0 5 -4 13 -10 16 -5
3 -10 2 -10 -4z"/>
<path d="M3198 1503 c7 -3 16 -2 19 1 4 3 -2 6 -13 5 -11 0 -14 -3 -6 -6z"/>
<path d="M3388 1489 c6 -14 19 -24 35 -26 20 -3 25 0 21 11 -3 8 -13 17 -22
20 -9 3 -23 9 -29 12 -10 4 -11 0 -5 -17z"/>
<path d="M3250 1489 c0 -7 9 -9 21 -6 12 3 33 1 46 -4 29 -11 45 -3 23 11 -21
14 -90 12 -90 -1z"/>
<path d="M3166 1472 c-3 -5 1 -9 9 -9 8 0 12 4 9 9 -3 4 -7 8 -9 8 -2 0 -6 -4
-9 -8z"/>
<path d="M3361 1438 c6 -7 22 -13 34 -13 14 0 21 5 18 13 -3 6 -18 12 -34 12
-23 0 -27 -3 -18 -12z"/>
<path d="M3390 1378 c0 -7 5 -20 10 -28 8 -12 10 -9 10 13 0 15 -4 27 -10 27
-5 0 -10 -6 -10 -12z"/>
<path d="M3315 1310 c-3 -5 1 -10 9 -10 9 0 16 5 16 10 0 6 -4 10 -9 10 -6 0
-13 -4 -16 -10z"/>
<path d="M5166 2261 c-13 -5 -16 -10 -9 -14 7 -4 14 -3 18 3 4 6 11 7 17 4 7
-4 8 -2 4 4 -4 7 -8 12 -9 11 -1 0 -11 -4 -21 -8z"/>
<path d="M5190 2049 c0 -5 5 -7 10 -4 6 3 10 8 10 11 0 2 -4 4 -10 4 -5 0 -10
-5 -10 -11z"/>
<path d="M5158 1733 c7 -3 16 -2 19 1 4 3 -2 6 -13 5 -11 0 -14 -3 -6 -6z"/>
<path d="M5200 1736 c0 -2 7 -6 15 -10 8 -3 15 -1 15 4 0 6 -7 10 -15 10 -8 0
-15 -2 -15 -4z"/>
<path d="M5138 1603 c7 -3 16 -2 19 1 4 3 -2 6 -13 5 -11 0 -14 -3 -6 -6z"/>
<path d="M5405 1540 c3 -5 8 -10 11 -10 2 0 4 5 4 10 0 6 -5 10 -11 10 -5 0
-7 -4 -4 -10z"/>
<path d="M5440 1510 c-12 -8 -10 -10 8 -10 13 0 20 4 17 10 -7 12 -6 12 -25 0z"/>
<path d="M5286 1492 c-11 -19 10 -27 27 -10 16 17 16 18 -2 18 -11 0 -22 -4
-25 -8z"/>
<path d="M5205 1480 c-3 -5 -1 -10 4 -10 6 0 11 5 11 10 0 6 -2 10 -4 10 -3 0
-8 -4 -11 -10z"/>
<path d="M5235 1470 c4 -6 11 -8 16 -5 14 9 11 15 -7 15 -8 0 -12 -5 -9 -10z"/>
<path d="M5370 1456 c0 -9 30 -14 35 -6 4 6 -3 10 -14 10 -12 0 -21 -2 -21 -4z"/>
<path d="M5216 1435 c-11 -8 -17 -17 -14 -20 3 -3 16 3 29 14 27 23 14 28 -15
6z"/>
<path d="M5289 1332 c11 -21 41 -48 41 -38 0 4 -7 18 -16 31 -19 29 -40 34
-25 7z"/>
</g>
</svg>
